<?xml version="1.0" encoding="utf-8"?>
<!-- Generator: Adobe Illustrator 19.0.0, SVG Export Plug-In . SVG Version: 6.00 Build 0)  -->
<svg version="1.1" id="Capa_1" xmlns="http://www.w3.org/2000/svg" xmlns:xlink="http://www.w3.org/1999/xlink" x="0px" y="0px"
	 viewBox="-256 447 512 512" style="enable-background:new -256 447 512 512;" xml:space="preserve">
<g>
	<g id="_x38__3_">
		<g>
			<path d="M0,447c-141.4,0-256,114.6-256,256S-141.4,959,0,959s256-114.6,256-256S141.4,447,0,447z M0,927
				c-123.7,0-224-100.3-224-224S-123.7,479,0,479s224,100.3,224,224S123.7,927,0,927z M96,687H16v-80c0-8.8-7.2-16-16-16
				s-16,7.2-16,16v80h-80c-8.8,0-16,7.2-16,16s7.2,16,16,16h80v80c0,8.8,7.2,16,16,16s16-7.2,16-16v-80h80c8.8,0,16-7.2,16-16
				S104.8,687,96,687z"/>
		</g>
	</g>
</g>
</svg>
