<?xml version="1.0" encoding="UTF-8" standalone="no"?>
<svg width="476px" height="512px" viewBox="0 0 476 512" version="1.1" xmlns="http://www.w3.org/2000/svg" xmlns:xlink="http://www.w3.org/1999/xlink" xmlns:sketch="http://www.bohemiancoding.com/sketch/ns">
    <!-- Generator: Sketch 3.4.4 (17249) - http://www.bohemiancoding.com/sketch -->
    <title>calendar52</title>
    <desc>Created with Sketch.</desc>
    <defs></defs>
    <g id="Page-1" stroke="none" stroke-width="1" fill="none" fill-rule="evenodd" sketch:type="MSPage">
        <g id="calendar52" sketch:type="MSLayerGroup" fill="#000000">
            <g id="Capa_1" sketch:type="MSShapeGroup">
                <path d="M464.513,83.942 C457.288,76.709 448.716,73.092 438.819,73.092 L402.278,73.092 L402.278,45.682 C402.278,33.122 397.801,22.367 388.856,13.421 C379.906,4.475 369.157,0 356.591,0 L338.323,0 C325.758,0 315.005,4.475 306.059,13.422 C297.11,22.367 292.637,33.123 292.637,45.683 L292.637,73.093 L183.007,73.093 L183.007,45.683 C183.007,33.123 178.532,22.368 169.585,13.422 C160.64,4.475 149.886,0 137.321,0 L119.05,0 C106.488,0 95.733,4.475 86.786,13.422 C77.841,22.367 73.365,33.123 73.365,45.683 L73.365,73.093 L36.823,73.093 C26.923,73.093 18.359,76.71 11.126,83.943 C3.893,91.175 0.276,99.743 0.276,109.64 L0.276,475.093 C0.276,484.983 3.893,493.549 11.126,500.786 C18.358,508.017 26.922,511.635 36.823,511.635 L438.812,511.635 C448.709,511.635 457.282,508.018 464.506,500.786 C471.74,493.552 475.358,484.982 475.358,475.093 L475.358,109.639 C475.357,99.739 471.743,91.175 464.513,83.942 L464.513,83.942 Z M119.047,475.088 L36.823,475.088 L36.823,392.858 L119.047,392.858 L119.047,475.088 L119.047,475.088 Z M119.047,374.59 L36.823,374.59 L36.823,283.232 L119.047,283.232 L119.047,374.59 L119.047,374.59 Z M119.047,264.951 L36.823,264.951 L36.823,182.728 L119.047,182.728 L119.047,264.951 L119.047,264.951 Z M112.627,134.333 C110.818,132.524 109.915,130.387 109.915,127.91 L109.915,45.686 C109.915,43.212 110.818,41.069 112.627,39.263 C114.436,37.454 116.573,36.551 119.05,36.551 L137.321,36.551 C139.795,36.551 141.938,37.454 143.744,39.263 C145.553,41.07 146.458,43.212 146.458,45.686 L146.458,127.91 C146.458,130.388 145.549,132.525 143.744,134.333 C141.937,136.142 139.798,137.045 137.321,137.045 L119.05,137.045 C116.576,137.046 114.436,136.142 112.627,134.333 L112.627,134.333 Z M228.683,475.088 L137.318,475.088 L137.318,392.858 L228.683,392.858 L228.683,475.088 L228.683,475.088 Z M228.683,374.59 L137.318,374.59 L137.318,283.232 L228.683,283.232 L228.683,374.59 L228.683,374.59 Z M228.683,264.951 L137.318,264.951 L137.318,182.728 L228.683,182.728 L228.683,264.951 L228.683,264.951 Z M338.323,475.088 L246.959,475.088 L246.959,392.858 L338.323,392.858 L338.323,475.088 L338.323,475.088 Z M338.323,374.59 L246.959,374.59 L246.959,283.232 L338.323,283.232 L338.323,374.59 L338.323,374.59 Z M338.323,264.951 L246.959,264.951 L246.959,182.728 L338.323,182.728 L338.323,264.951 L338.323,264.951 Z M331.896,134.333 C330.089,132.524 329.189,130.387 329.189,127.91 L329.189,45.686 C329.189,43.212 330.089,41.069 331.896,39.263 C333.704,37.454 335.845,36.551 338.323,36.551 L356.591,36.551 C359.069,36.551 361.208,37.454 363.018,39.263 C364.826,41.07 365.725,43.212 365.725,45.686 L365.725,127.91 C365.725,130.388 364.822,132.525 363.018,134.333 C361.211,136.142 359.069,137.045 356.591,137.045 L338.323,137.045 C335.846,137.046 333.697,136.142 331.896,134.333 L331.896,134.333 Z M438.812,475.088 L356.584,475.088 L356.584,392.858 L438.812,392.858 L438.812,475.088 L438.812,475.088 Z M438.812,374.59 L356.584,374.59 L356.584,283.232 L438.812,283.232 L438.812,374.59 L438.812,374.59 Z M438.812,264.951 L356.584,264.951 L356.584,182.728 L438.812,182.728 L438.812,264.951 L438.812,264.951 Z" id="Shape"></path>
            </g>
        </g>
    </g>
</svg>