<?xml version="1.0" encoding="UTF-8" standalone="no"?>
<svg width="511px" height="508px" viewBox="0 0 511 508" version="1.1" xmlns="http://www.w3.org/2000/svg" xmlns:xlink="http://www.w3.org/1999/xlink" xmlns:sketch="http://www.bohemiancoding.com/sketch/ns">
    <!-- Generator: Sketch 3.4.4 (17249) - http://www.bohemiancoding.com/sketch -->
    <title>duplicate5</title>
    <desc>Created with Sketch.</desc>
    <defs></defs>
    <g id="Page-1" stroke="none" stroke-width="1" fill="none" fill-rule="evenodd" sketch:type="MSPage">
        <g id="duplicate5" sketch:type="MSLayerGroup" fill="#000000">
            <g id="Capa_1" sketch:type="MSShapeGroup">
                <g id="Layer_5_97_">
                    <g id="Group">
                        <path d="M324.815179,172.705828 L10.3682946,172.705828 C4.66560164,172.705828 0,177.37143 0,183.074123 L0,497.521007 C0,503.222391 4.66560164,507.889302 10.3682946,507.889302 L324.815179,507.889302 C330.516563,507.889302 335.182164,503.22501 335.182164,497.521007 L335.182164,183.074123 C335.182164,177.37143 330.515253,172.705828 324.815179,172.705828 L324.815179,172.705828 Z" id="Shape"></path>
                        <path d="M502.287437,0.464857868 L179.482277,0.464857868 C174.702753,0.464857868 170.797947,4.37359233 170.797947,9.14918851 L170.797947,145.948347 C170.797947,151.503072 176.38017,151.65235 176.38017,151.65235 L352.848073,151.65235 C357.13655,151.65235 359.793442,155.737861 359.793442,159.084838 L359.793442,334.742186 C359.793442,334.742186 359.993789,340.639989 365.598273,340.639989 L502.291366,340.639989 C507.065652,340.639989 510.974387,336.733873 510.974387,331.956967 L510.974387,9.14787905 C510.970459,4.37359233 507.060415,0.464857868 502.287437,0.464857868 L502.287437,0.464857868 Z" id="Shape"></path>
                    </g>
                </g>
            </g>
        </g>
    </g>
</svg>