<?xml version="1.0" encoding="utf-8"?>
<!-- Generator: Adobe Illustrator 19.1.0, SVG Export Plug-In . SVG Version: 6.00 Build 0)  -->
<svg version="1.1" id="Capa_1" xmlns="http://www.w3.org/2000/svg" xmlns:xlink="http://www.w3.org/1999/xlink" x="0px" y="0px"
	 viewBox="-686 74 512 512" style="enable-background:new -686 74 512 512;" xml:space="preserve">
<g>
	<path d="M-620.3,74h380.6c36.1,0,65.7,26.8,65.7,65.7v380.6c0,39-29.6,65.7-65.7,65.7h-380.6c-36.2,0-65.7-26.8-65.7-65.7V139.7
		C-686,100.8-656.4,74-620.3,74L-620.3,74z M-313,130.9c-12.7,0-23,10.4-23,23.1v55.2c0,12.7,10.4,23.1,23,23.1h57.9
		c12.7,0,23.1-10.4,23.1-23.1v-55.2c0-12.7-10.4-23.1-23.1-23.1H-313L-313,130.9z M-231.9,290.5h-45.1c4.3,13.9,6.6,28.7,6.6,43.9
		c0,85.2-71.3,154.2-159.2,154.2c-87.9,0-159.1-69-159.1-154.2c0-15.3,2.3-30,6.6-43.9h-47v216.3c0,11.2,9.2,20.4,20.4,20.4h356.5
		c11.2,0,20.4-9.2,20.4-20.4L-231.9,290.5L-231.9,290.5z M-429.5,229.3c-56.8,0-102.8,44.6-102.8,99.6c0,55,46,99.6,102.8,99.6
		c56.8,0,102.8-44.6,102.8-99.6S-372.7,229.3-429.5,229.3z"/>
</g>
</svg>
