<?xml version="1.0" encoding="utf-8"?>
<!-- Generator: Adobe Illustrator 19.1.0, SVG Export Plug-In . SVG Version: 6.00 Build 0)  -->
<svg version="1.1" id="Layer_1" xmlns="http://www.w3.org/2000/svg" xmlns:xlink="http://www.w3.org/1999/xlink" x="0px" y="0px"
	 viewBox="-671 89 512 512" style="enable-background:new -671 89 512 512;" xml:space="preserve">
<path d="M-266.3,226.8L-287,562.1c-0.5,10.3-9.4,19.2-19.7,19.2h-216.6c-10.3,0-19.2-8.9-19.7-19.2l-20.7-335.3h-19.7l20.7,336.7
	c1.5,20.7,18.7,37.4,39.4,37.4h216.6c20.7,0,37.9-16.7,39.4-37.4l20.7-336.7H-266.3z"/>
<path d="M-227.9,138.2h-374.2c-10.8,0-19.7,8.9-19.7,19.7v39.4c0,10.8,8.9,19.7,19.7,19.7h374.2c10.8,0,19.7-8.9,19.7-19.7v-39.4
	C-208.2,147.1-217.1,138.2-227.9,138.2z M-227.9,197.3h-374.2v-39.4h374.2V197.3z"/>
<path d="M-410.1,540.4c-3,0-4.9-2-4.9-4.9V251.5c0-3,2-4.9,4.9-4.9c3,0,4.9,2,4.9,4.9v284.1C-405.2,538-407.1,540.4-410.1,540.4z"/>
<path d="M-337.2,540.4L-337.2,540.4c-3,0-4.9-2.5-4.9-4.9l10.8-284.1c0-3,2.5-4.9,4.9-4.9c3,0,4.9,2.5,4.9,4.9l-10.8,284.1
	C-332.3,538-334.3,540.4-337.2,540.4z"/>
<path d="M-485.4,540.4c-2.5,0-4.9-2-4.9-4.9l-12.3-284.1c0-3,2-4.9,4.9-4.9c2.5,0,4.9,2,4.9,4.9l12.3,284.1
	C-480.5,538-482.4,540-485.4,540.4L-485.4,540.4z"/>
<path d="M-469.2,128.4v-9.8c0-5.4,4.4-9.8,9.8-9.8h98.5c5.4,0,9.8,4.4,9.8,9.8v9.8h19.7v-9.8c0-16.2-13.3-29.5-29.5-29.5h-98.5
	c-16.2,0-29.5,13.3-29.5,29.5v9.8H-469.2z"/>
</svg>
