<?xml version="1.0" encoding="UTF-8" standalone="no"?>
<svg width="512px" height="416px" viewBox="0 0 512 416" version="1.1" xmlns="http://www.w3.org/2000/svg" xmlns:xlink="http://www.w3.org/1999/xlink" xmlns:sketch="http://www.bohemiancoding.com/sketch/ns">
    <!-- Generator: Sketch 3.4.4 (17249) - http://www.bohemiancoding.com/sketch -->
    <title>Shape</title>
    <desc>Created with Sketch.</desc>
    <defs></defs>
    <g id="Page-1" stroke="none" stroke-width="1" fill="none" fill-rule="evenodd" sketch:type="MSPage">
        <path d="M512,49.2064595 C493.155525,57.5565908 472.935675,63.2195543 451.690986,65.7477676 C473.383257,52.7578378 489.988147,32.1539872 497.858068,7.67833934 C477.510218,19.7078492 455.049946,28.4428177 431.11809,33.1779889 C411.954033,12.7339293 384.695008,-2.84217094e-14 354.460187,-2.84217094e-14 C296.455177,-2.84217094e-14 249.423885,47.0312925 249.423885,105.004511 C249.423885,113.226643 250.351677,121.257192 252.14368,128.936368 C164.864269,124.55257 87.4709926,82.7366581 35.672738,19.1958484 C26.6181873,34.6813639 21.4672246,52.7252103 21.4672246,71.9863137 C21.4672246,108.42789 40.0239085,140.581877 68.1789349,159.393724 C50.9658349,158.818142 34.7767366,154.082971 20.6038507,146.212213 L20.6038507,147.524006 C20.6038507,198.394468 56.821217,240.85038 104.843884,250.513141 C96.0453334,252.880727 86.7674098,254.19252 77.1690673,254.19252 C70.3867294,254.19252 63.8277644,253.520728 57.3967997,252.240726 C70.7698934,293.993056 109.547264,324.35504 155.490973,325.187459 C119.561398,353.342486 74.25769,370.075376 25.0512305,370.075376 C16.573099,370.075376 8.22213108,369.563375 -2.84217094e-14,368.635583 C46.4875008,398.486403 101.677343,415.891085 160.994145,415.891085 C354.20586,415.891085 459.818581,255.856523 459.818581,117.066649 L459.466372,103.469346 C480.102013,88.7509947 497.954278,70.2587292 512,49.2064595 L512,49.2064595 Z" id="Shape" fill="#000000" sketch:type="MSShapeGroup"></path>
    </g>
</svg>