<?xml version="1.0" encoding="utf-8"?>
<!-- Generator: Adobe Illustrator 19.1.0, SVG Export Plug-In . SVG Version: 6.00 Build 0)  -->
<svg version="1.1" id="Capa_1" xmlns="http://www.w3.org/2000/svg" xmlns:xlink="http://www.w3.org/1999/xlink" x="0px" y="0px"
	 viewBox="-507 253 512 512" style="enable-background:new -507 253 512 512;" xml:space="preserve">
<g>
	<g>
		<path d="M-3.8,497.9c-1-1.3-25.8-32.4-68.4-63.7c-56.8-41.8-118.7-63.8-178.8-63.8c-60.2,0-122,22.1-178.8,63.8
			c-42.5,31.2-67.3,62.4-68.4,63.7L-507,509l8.8,11.1c1,1.3,25.8,32.4,68.4,63.7c56.8,41.8,118.7,63.8,178.8,63.8
			c60.2,0,122-22.1,178.8-63.8c42.5-31.2,67.3-62.4,68.4-63.7L5,509L-3.8,497.9z M-251,606.1c-53.5,0-97.1-43.6-97.1-97.1
			c0-8.4,1.1-16.5,3.1-24.3l-22.2-3.7c-2.2,9-3.3,18.4-3.3,28c0,34.6,14.8,65.8,38.3,87.6c-30.3-11.2-56.1-26.9-75.6-41.1
			c-24.1-17.6-42.2-35.4-52.5-46.5c10.3-11.1,28.4-28.9,52.5-46.5c19.5-14.2,45.3-29.9,75.6-41.1l14.9,16.8
			c17.4-16.3,40.7-26.2,66.3-26.2c53.5,0,97.1,43.6,97.1,97.1S-197.5,606.1-251,606.1z M-94.2,555.5c-19.5,14.2-45.3,29.9-75.6,41.1
			c23.6-21.8,38.3-53,38.3-87.6s-14.8-65.8-38.3-87.6c30.3,11.2,56.1,26.9,75.6,41.1c24.1,17.6,42.2,35.4,52.5,46.5
			C-52,520.1-70.1,537.9-94.2,555.5z"/>
		<path d="M-312.8,490.1c-1.8,6-2.8,12.3-2.8,18.9c0,35.7,28.9,64.6,64.6,64.6c35.7,0,64.6-28.9,64.6-64.6s-28.9-64.6-64.6-64.6
			c-17.4,0-33.1,6.9-44.8,18l31.9,35.9L-312.8,490.1z"/>
	</g>
</g>
</svg>
