<?xml version="1.0" encoding="utf-8"?>
<!-- Generator: Adobe Illustrator 19.1.0, SVG Export Plug-In . SVG Version: 6.00 Build 0)  -->
<svg version="1.1" id="Capa_1" xmlns="http://www.w3.org/2000/svg" xmlns:xlink="http://www.w3.org/1999/xlink" x="0px" y="0px"
	 viewBox="-690 70 512 512" style="enable-background:new -690 70 512 512;" xml:space="preserve">
<g>
	<path id="YouTube" d="M-286.4,444.5h-28.1l0.1-16.3c0-7.3,6-13.2,13.2-13.2h1.8c7.3,0,13.3,5.9,13.3,13.2L-286.4,444.5z
		 M-391.8,409.5c-7.1,0-13,4.8-13,10.7v79.4c0,5.9,5.8,10.6,13,10.6c7.2,0,13-4.8,13-10.6v-79.4
		C-378.8,414.3-384.7,409.5-391.8,409.5z M-220.7,365.1v151c0,36.2-31.4,65.9-69.8,65.9h-287.1c-38.4,0-69.8-29.6-69.8-65.9v-151
		c0-36.2,31.4-65.9,69.8-65.9h287.1C-252.1,299.3-220.7,328.9-220.7,365.1z M-558.4,532.5l0-159.1l35.6,0v-23.6l-94.9-0.1v23.2
		l29.6,0.1v159.5H-558.4z M-451.7,397.2h-29.7v84.9c0,12.3,0.7,18.4,0,20.6c-2.4,6.6-13.3,13.6-17.5,0.7c-0.7-2.3-0.1-9.1-0.1-20.7
		l-0.1-85.5h-29.5l0.1,84.2c0,12.9-0.3,22.5,0.1,26.9c0.7,7.7,0.5,16.7,7.6,21.9c13.3,9.6,38.9-1.4,45.3-15.2l-0.1,17.5l23.8,0
		L-451.7,397.2L-451.7,397.2z M-356.8,494.4l-0.1-70.7c0-26.9-20.2-43.1-47.5-21.3l0.1-52.6l-29.6,0l-0.1,181.4l24.4-0.4l2.2-11.3
		C-376.3,548.3-356.8,528.7-356.8,494.4z M-264,485.1l-22.2,0.1c0,0.9,0,1.9-0.1,3v12.4c0,6.6-5.5,12.1-12.2,12.1h-4.4
		c-6.7,0-12.2-5.4-12.2-12.1v-1.4v-13.7V468h50.9v-19.2c0-14-0.4-28-1.5-36c-3.6-25.3-39.2-29.4-57.2-16.4
		c-5.6,4.1-9.9,9.5-12.4,16.8c-2.5,7.3-3.8,17.2-3.8,29.9v42.2C-338.9,555.2-253.8,545.3-264,485.1z M-378.1,256.2
		c1.5,3.7,3.9,6.7,7.1,9c3.2,2.2,7.3,3.4,12.1,3.4c4.3,0,8.1-1.2,11.4-3.5c3.3-2.4,6.1-5.9,8.3-10.6l-0.6,11.6h33.1V125.4h-26v109.5
		c0,5.9-4.9,10.8-10.8,10.8c-5.9,0-10.8-4.9-10.8-10.8V125.4h-27.2v94.9c0,12.1,0.2,20.1,0.6,24.2
		C-380.5,248.5-379.6,252.4-378.1,256.2z M-478.3,176.8c0-13.5,1.1-24,3.4-31.6c2.3-7.6,6.3-13.7,12.2-18.2
		c5.8-4.6,13.3-6.9,22.4-6.9c7.7,0,14.2,1.5,19.7,4.4c5.5,3,9.7,6.8,12.7,11.5c3,4.8,5,9.6,6.1,14.6c1.1,5.1,1.7,12.7,1.7,23v35.6
		c0,13-0.5,22.6-1.5,28.7c-1,6.1-3.2,11.8-6.5,17.1c-3.3,5.3-7.6,9.2-12.7,11.7c-5.2,2.5-11.2,3.8-17.9,3.8c-7.5,0-13.9-1-19.1-3.2
		c-5.3-2.2-9.3-5.4-12.2-9.8c-2.9-4.3-5-9.6-6.2-15.8c-1.2-6.1-1.8-15.4-1.8-27.7L-478.3,176.8L-478.3,176.8z M-452.4,232.6
		c0,8,5.9,14.5,13.1,14.5c7.2,0,13.1-6.5,13.1-14.5v-74.9c0-8-5.9-14.5-13.1-14.5c-7.2,0-13.1,6.5-13.1,14.5V232.6z M-543.9,270.4
		h31.2l0-107.9l36.9-92.4h-34.1l-19.6,68.6L-549.4,70h-33.8l39.2,92.6L-543.9,270.4z"/>
</g>
</svg>
