<?xml version="1.0" encoding="utf-8"?>
<!-- Generator: Adobe Illustrator 16.0.3, SVG Export Plug-In . SVG Version: 6.00 Build 0)  -->
<!DOCTYPE svg PUBLIC "-//W3C//DTD SVG 1.1//EN" "http://www.w3.org/Graphics/SVG/1.1/DTD/svg11.dtd">
<svg version="1.1" id="Ebene_1" xmlns="http://www.w3.org/2000/svg" xmlns:xlink="http://www.w3.org/1999/xlink" x="0px" y="0px"
	 width="1190.55px" height="841.89px" viewBox="0 0 1190.55 841.89" enable-background="new 0 0 1190.55 841.89"
	 xml:space="preserve">
<path fill="#010202" d="M432.621,601.562"/>
<circle fill="#FFFFFF" stroke="#FFFFFF" stroke-miterlimit="10" cx="595.5" cy="429.277" r="358.454"/>
<path fill="#010202" d="M401.98,659.956l53.322-34.01l62.007-39.979c20.618-13.409,41.27-26.763,61.811-40.298
	c20.584-13.456,41.1-27.025,61.598-40.623l30.704-20.461l30.637-20.573l61.098-41.414l30.391-20.957
	c10.117-7.008,20.296-13.915,30.349-21.025l30.233-21.208l30.049-21.492l0.103-0.072l-0.035-0.097l-0.802-2.292
	c-10.828,5.914-21.54,12.011-32.313,18.011l-32.122,18.305c-10.731,6.068-21.35,12.31-32.009,18.487l-31.958,18.566l-63.603,37.629
	l-31.713,18.949l-31.645,19.062c-21.066,12.757-42.118,25.538-63.096,38.432c-21.022,12.82-41.933,25.821-62.883,38.766
	l-62.677,39.083l-60.187,37.946c-7.757-8.027-15.094-16.476-21.934-25.328l-6.37-8.6c-2.098-2.885-3.983-5.921-5.993-8.871
	l-2.995-4.438l-2.772-4.585c-1.813-3.077-3.776-6.066-5.481-9.208l-5.089-9.444c-1.751-3.117-3.122-6.437-4.71-9.641
	c-1.547-3.227-3.113-6.444-4.412-9.785l-3.934-9.429l-3.916-10.806c-0.614-1.76-1.405-3.69-1.87-5.311l-1.509-4.952l-1.522-4.948
	c-0.523-1.634-1.028-3.291-1.437-5.055l-2.639-10.398c-0.867-3.467-1.444-6.997-2.186-10.491l-1.061-5.251l-0.791-5.296
	c-0.481-3.535-1.137-7.049-1.55-10.59l-1.121-10.641c-2.445-28.421-0.75-57.092,4.741-84.875
	c11.032-55.605,38.019-107.176,75.343-147.196l3.466-3.782l3.641-3.598c2.438-2.382,4.825-4.816,7.291-7.157
	c5.086-4.502,9.974-9.228,15.309-13.369c10.346-8.705,21.45-16.27,32.695-23.373c5.741-3.35,11.366-6.879,17.276-9.807
	c2.933-1.502,5.809-3.12,8.773-4.53c2.983-1.375,5.957-2.747,8.92-4.114l4.222-1.944l4.688-1.875c3.121-1.247,6.23-2.492,9.329-3.73
	c3.014-1.042,6.018-2.082,9.011-3.117c2.999-1.02,5.944-2.116,9.058-2.935c24.495-7.301,49.301-11.677,73.551-12.699
	c24.245-0.96,47.876,0.828,70.139,5.114c22.272,4.274,43.159,10.947,62.215,19.193c19.074,8.228,36.389,17.923,51.678,28.486
	c30.793,20.959,53.313,45.036,69.495,66.288c12.898,16.87,21.699,32.179,27.857,44.258l0.144-0.203
	c-6.085-12.102-14.865-27.391-27.419-44.488c-2.003-2.693-4.061-5.458-6.171-8.293c-2.247-2.732-4.549-5.533-6.903-8.4
	c-2.296-2.919-4.895-5.689-7.502-8.567c-2.63-2.855-5.21-5.878-8.138-8.68c-11.261-11.65-24.393-23.382-39.528-34.493
	c-15.144-11.077-32.179-21.717-51.212-30.932c-19.042-9.144-39.946-17.196-62.593-22.809c-22.634-5.579-46.888-9.128-72.215-9.638
	c-25.322-0.675-51.659,2.08-78.127,8.023c-3.314,0.639-6.648,1.608-9.999,2.497c-3.342,0.912-6.696,1.827-10.062,2.745
	c-3.178,1.022-6.366,2.05-9.564,3.079l-4.804,1.547c0.02-0.014-0.7,0.234-0.854,0.298l-0.609,0.23l-1.222,0.465l-2.445,0.927
	c-3.266,1.243-6.546,2.49-9.833,3.74c-3.272,1.29-6.466,2.795-9.724,4.193c-6.559,2.716-12.857,6.068-19.299,9.264
	c-12.641,6.801-25.241,14.188-37.15,22.863c-6.117,4.125-11.806,8.874-17.707,13.437c-2.86,2.386-5.639,4.881-8.472,7.333
	l-4.236,3.706l-4.064,3.907c-21.936,20.659-41.147,45.045-56.883,72c-15.563,27.047-27.636,56.708-34.926,87.913
	c-3.717,15.584-6.106,31.542-7.559,47.639c-1.356,16.116-1.234,32.381-0.264,48.616c0.999,16.252,3.659,32.389,7.101,48.338
	l2.93,11.889c0.449,1.97,1.04,3.982,1.662,6.003l1.822,6.045l1.838,6.041c0.609,2.06,1.279,3.678,1.915,5.54l3.88,10.816
	l4.944,11.778c1.521,3.789,3.316,7.457,5.105,11.129c1.827,3.649,3.444,7.404,5.452,10.963l5.878,10.74
	c8.224,14.094,17.242,27.736,27.483,40.388c10.262,12.61,21.16,24.686,33.068,35.627c11.984,10.839,24.506,21.006,37.786,29.964
	c26.497,17.999,55.402,31.754,85.167,41.103c3.687,1.277,7.494,2.15,11.222,3.234c3.743,1.051,7.477,2.087,11.271,2.871
	c3.776,0.84,7.545,1.679,11.307,2.516c3.793,0.665,7.583,1.328,11.364,1.991c15.165,2.311,30.334,3.861,45.396,3.961l5.635,0.132
	l5.626-0.133c3.744-0.109,7.479-0.149,11.196-0.337c0.47-0.04,0.939-0.072,1.407-0.11l-0.441-0.474
	c-121.917-27.36-183.135-88.026-192.128-97.533"/>
<path fill="#282828" d="M263.678,558.997c0,0,0.83,1.959,2.432,5.76c1.681,3.765,3.783,9.531,7.394,16.652
	c6.804,14.39,17.676,35.322,35.748,59.022c2.278,2.941,4.615,5.964,7.01,9.062c2.544,2.979,5.149,6.032,7.818,9.159
	c2.599,3.185,5.538,6.196,8.481,9.327c2.966,3.105,5.881,6.395,9.181,9.432c12.654,12.687,27.672,25.051,44.652,36.805
	c16.98,11.763,36.196,22.605,57.39,31.802c21.173,9.215,44.382,16.724,69.151,21.545c24.758,4.854,51.059,6.935,78.059,5.958
	c3.378,0.008,6.761-0.415,10.154-0.629c3.395-0.279,6.802-0.477,10.212-0.823c3.401-0.432,6.815-0.866,10.241-1.3l5.145-0.652
	l5.131-0.894c3.42-0.607,6.854-1.217,10.295-1.831c3.441-0.631,6.844-1.531,10.281-2.287c6.894-1.43,13.692-3.47,20.549-5.413
	c3.447-0.894,6.813-2.125,10.209-3.266c3.392-1.158,6.789-2.322,10.205-3.487c3.347-1.332,6.712-2.665,10.082-4.004l5.063-2.006
	l4.866-2.204c3.42-1.556,6.85-3.117,10.287-4.683c3.382-1.592,6.455-3.324,9.708-4.978c6.445-3.165,12.789-7.103,19.204-10.812
	c12.573-7.876,25.002-16.271,36.591-25.944c5.974-4.602,11.453-9.853,17.152-14.858c2.751-2.615,5.431-5.322,8.161-7.976
	l4.082-4.004l3.888-4.211c20.933-22.279,38.951-47.821,53.351-75.538c7.21-13.866,13.341-28.345,18.691-43.144
	c1.244-3.733,2.489-7.472,3.739-11.214c1.219-3.748,2.17-7.585,3.275-11.375l1.592-5.706l1.358-5.771
	c0.854-3.862,1.936-7.674,2.612-11.58c6.225-31.064,8.098-63.15,5.417-94.957l-1.24-11.908c-0.45-3.967-1.19-7.899-1.764-11.851
	l-0.884-5.926l-1.183-5.878c-0.83-3.91-1.475-7.859-2.444-11.741l-2.946-11.635c-0.915-3.897-2.292-7.668-3.411-11.512
	c-1.163-3.833-2.305-7.669-3.762-11.407l-3.906-10.807l-4.918-11.786c-0.82-1.908-1.62-4.065-2.463-5.764l-2.514-5.244l-2.502-5.251
	c-0.809-1.75-1.648-3.505-2.649-5.267l-5.693-10.563c-1.908-3.514-4.11-6.862-6.141-10.302l-3.103-5.129l-3.356-4.965
	c-2.277-3.28-4.399-6.669-6.744-9.897l-7.132-9.614c-19.516-25.258-42.632-47.576-68.206-66.261
	c-51.212-37.378-112.484-59.262-173.419-63.785l-5.708-0.477l-5.711-0.191c-3.805-0.108-7.605-0.293-11.399-0.346
	c-7.584,0.165-15.168,0-22.679,0.647c-15.072,0.708-29.901,2.924-44.486,5.619c-7.241,1.606-14.517,2.973-21.573,5.053
	c-3.542,0.987-7.119,1.84-10.61,2.932c-3.483,1.132-6.957,2.26-10.417,3.386l-4.956,1.615l-5.238,2.003
	c-3.485,1.336-6.961,2.667-10.423,3.992c-3.262,1.428-6.51,2.854-9.749,4.273c-3.228,1.436-6.476,2.774-9.641,4.455
	c-25.565,12.559-49.159,27.737-69.76,45.232c-20.555,17.529-38.515,36.844-53.488,57.146
	c-14.981,20.301-27.018,41.513-36.385,62.617c-9.39,21.104-16.233,42.079-20.788,62.226c-9.389,40.328-9.699,76.96-6.954,106.519
	c2.704,29.68,8.853,52.453,13.574,67.657c2.152,7.688,4.502,13.355,5.811,17.264C262.963,556.992,263.678,558.997,263.678,558.997z
	 M263.678,558.997c0,0-0.727-2.001-2.138-5.877c-1.331-3.901-3.713-9.555-5.915-17.234c-4.886-15.174-10.928-37.951-14.157-67.626
	c-0.378-3.711-0.766-7.521-1.164-11.428c-0.212-3.922-0.429-7.941-0.65-12.059c-0.311-4.114-0.257-8.335-0.284-12.646
	c0.009-4.313-0.144-8.727,0.153-13.219c0.481-17.991,2.455-37.45,6.525-57.898c4.098-20.432,10.097-41.912,18.792-63.717
	c8.751-21.756,19.868-43.996,34.223-65.536c14.368-21.504,31.597-42.539,51.956-61.883c20.242-19.468,43.866-36.877,69.965-51.767
	c3.194-1.954,6.641-3.646,10.042-5.416c3.401-1.744,6.843-3.562,10.267-5.26c3.375-1.539,6.763-3.081,10.16-4.629l5.103-2.325
	c0.009-0.005,0.717-0.321,0.893-0.384l0.672-0.266l1.344-0.533l2.693-1.064c3.601-1.421,7.214-2.847,10.836-4.277
	c3.641-1.39,7.375-2.54,11.083-3.823c7.391-2.673,15.046-4.631,22.695-6.819c15.412-3.867,31.22-7.223,47.426-9.011
	c8.077-1.189,16.266-1.547,24.49-2.217c4.113-0.181,8.245-0.214,12.388-0.325l6.224-0.131l6.234,0.163
	c33.319,0.528,67.182,6.111,100.117,16.378c4.093,1.362,8.193,2.727,12.298,4.092c4.084,1.435,8.09,3.102,12.145,4.651l6.068,2.393
	l5.968,2.652c3.957,1.82,8.021,3.449,11.91,5.445c15.794,7.534,30.97,16.532,45.641,26.407l10.845,7.674
	c3.591,2.603,7.02,5.425,10.539,8.138c1.741,1.378,3.518,2.722,5.233,4.137l5.056,4.36c3.33,2.958,6.844,5.725,10.011,8.87
	c13.133,12.111,25.164,25.448,36.488,39.388c11.305,13.98,21.184,29.093,30.292,44.639l6.487,11.862
	c1.104,1.94,2.126,4.013,3.123,6.117l3.021,6.26l3.01,6.271c1.037,2.118,1.71,3.965,2.584,5.961l4.948,11.772l4.756,13.22
	c1.598,4.216,2.874,8.542,4.159,12.864c1.24,4.333,2.733,8.594,3.759,12.988l3.238,13.125c3.834,17.605,6.7,35.432,7.831,53.373
	c0.438,4.468,0.416,8.968,0.637,13.445l0.243,6.721c0.036,2.239-0.036,4.48-0.05,6.719c-0.086,4.477-0.04,8.955-0.247,13.418
	l-0.836,13.377c-1.628,17.771-4.198,35.399-8.291,52.615c-4.124,17.196-9.275,34.064-15.789,50.298
	c-1.512,4.101-3.401,8.045-5.089,12.063l-2.599,5.989l-2.852,5.862c-1.939,3.887-3.763,7.82-5.801,11.638
	c-2.107,3.777-4.21,7.552-6.307,11.321c-2.039,3.798-4.479,7.36-6.695,11.033l-3.401,5.464c-1.132,1.82-2.409,3.543-3.604,5.316
	c-2.442,3.517-4.833,7.051-7.305,10.519c-2.584,3.385-5.166,6.765-7.741,10.136c-10.592,13.245-21.749,25.889-33.921,37.266
	l-4.479,4.336l-4.67,4.111c-3.126,2.721-6.188,5.489-9.352,8.128c-6.51,5.063-12.779,10.337-19.533,14.923
	c-13.142,9.638-27.05,17.857-41.013,25.433c-7.123,3.562-14.025,7.271-21.433,10.373c-3.627,1.575-7.299,3.312-10.846,4.717
	c-3.527,1.354-7.047,2.7-10.556,4.044l-5.519,2.091l-5.485,1.796c-3.649,1.193-7.285,2.38-10.908,3.563
	c-3.663,1.061-7.344,2.02-10.988,3.023c-3.658,0.98-7.273,2.045-10.963,2.771c-29.287,6.687-58.457,9.83-86.525,9.197
	c-28.077-0.477-54.981-4.33-80.11-10.436c-25.136-6.164-48.37-15.011-69.525-25.119c-21.146-10.186-40.099-21.938-56.935-34.218
	c-16.827-12.309-31.435-25.313-43.962-38.232c-3.257-3.108-6.127-6.463-9.05-9.634c-2.901-3.193-5.792-6.267-8.346-9.508
	c-2.621-3.183-5.179-6.291-7.676-9.323c-2.348-3.146-4.64-6.216-6.868-9.205c-17.698-24.04-28.642-44.907-35.305-59.393
	c-3.573-7.146-5.639-12.921-7.295-16.696C264.495,560.961,263.678,558.997,263.678,558.997z"/>
<g>
	<g>
		<path fill="#8E1913" stroke="#8E1913" stroke-width="0.75" stroke-miterlimit="10" d="M413.019,448.385
			c3.156-1.459,4.87-1.963,5.138-1.508l0.986,1.666c-8.391,5.514-16.661,17.391-24.806,35.636
			c-6.192,16.478-7.229,28.2-3.105,35.163c2.359,3.989,7.114,4.31,14.266,0.962l3.179-1.881c0.203-0.121,0.347-0.105,0.437,0.049
			c0.316-0.392,0.573-0.647,0.776-0.768c8.023-4.749,19.15-16.345,33.383-34.785c0.755-0.45,4.804-5.47,12.144-15.06
			c15.424-17.579,23.386-26.52,23.892-26.818c14.63-16.156,28.998-30.28,43.101-42.38c11.378-10.479,25.479-21.827,42.312-34.037
			c0.253-0.149,0.438-0.124,0.558,0.077c3.254-2.675,11.112-7.701,23.58-15.081l0.74-0.131c0.313-0.388,0.696-0.719,1.152-0.988
			l0.681-0.404c0.203-0.119,0.348-0.102,0.438,0.048c0.203-0.118,0.257-0.253,0.167-0.406l1.726-0.712
			c9.819-5.405,15.219-7.85,16.203-7.34l0.178,0.303c-6.531,3.591-10.807,5.748-12.833,6.469l-0.5,0.706
			c-0.153,0.09-0.844,0.363-2.073,0.819c-0.151,0.09-0.724,0.563-1.713,1.42c-0.523,0.039-0.91,0.131-1.162,0.281l-0.43,0.663
			l-2.07,0.816c-0.506,0.298-0.873,0.655-1.107,1.065l-2.252,0.515c-0.284,0.442-0.552,0.735-0.805,0.884
			c-0.523,0.039-0.884,0.117-1.087,0.235l0.057,0.785c-2.593,1.263-4.101,1.881-4.523,1.858c0.33,0.557,0.291,0.954-0.112,1.193
			c-0.202,0.12-0.348,0.104-0.438-0.047l-0.545,0.632l-0.303,0.176l-0.316-0.528l-0.67,1.112l-0.909,0.539
			c-0.505,0.298-0.979,0.477-1.421,0.532c-0.496,0.771-1.023,1.322-1.578,1.651l-0.983,0.582l-1.224,0.009l-1.285,0.76
			c-0.48,1.035-1.274,1.879-2.385,2.537l-5.073,3l-0.595,1.069l-0.303,0.178c-0.253,0.151-0.438,0.125-0.557-0.079l-0.427,0.663
			l-2.196,1.299l0.315,0.528l-2.405,1.119l-0.304,0.178c0.21,0.354,0.214,0.588,0.012,0.71c-0.253,0.148-0.642,0.241-1.165,0.28
			l-1.41,1.243l-0.784,0.056c-1.144,0.947-1.874,2.13-2.194,3.546l-0.605,0.358l-0.135-0.228l-0.054-0.785l-0.606,0.36
			c-0.427,0.318-0.533,0.655-0.323,1.006l-1.466,0.46c-2.981,2.104-4.277,3.485-3.889,4.142l-0.682,0.403l-0.312-0.53l-3.784,2.239
			c0.537,0.909,0.577,1.496,0.124,1.767l-0.306,0.18c-0.327-0.555-0.694-0.712-1.095-0.474l-0.983,0.582l1.173,0.428l-0.502,0.705
			l-0.304,0.18l-0.494-0.832l-0.303,0.178c0.003,1.5-1.158,2.937-3.48,4.311c-0.863,0.033-1.6,0.232-2.205,0.588l0.615,0.353
			l0.315,0.529l-2.623,1.96c-0.656,0.388-1.207,0.205-1.656-0.553l-0.304,0.179c-0.377,0.974-0.844,1.625-1.398,1.953l0.181,0.302
			l1.208-0.717c0.337-0.469,0.605-0.763,0.809-0.884c0.268,0.455-1.849,2.693-6.348,6.721c-1.503,0.686-2.709,1.295-3.617,1.834
			l-1.891,1.122c0.207,0.351,0.641,0.334,1.294-0.056l0.181,0.304c0.271,0.454-0.627,1.359-2.687,2.715
			c-0.12-0.202-0.28-0.243-0.48-0.125c0.33,0.555-1.262,2.246-4.768,5.073c-0.21-0.355-0.517-0.41-0.921-0.171
			c0.359,0.604-0.595,2.156-2.864,4.658c0.359,0.604-1.971,4.61-6.997,12.013c-4.538,8.682-7.737,15.822-9.6,21.426
			c-3.482,10.58-5.867,22.215-7.15,34.9l-2.134,16.596c-0.045,0.501-0.007,0.855,0.113,1.057l0.379-0.223
			c7.947-6.953,14.436-12.396,19.468-16.33c1.953-2.111,5.903-5.57,11.844-10.384c12.124-10.721,25.276-21.775,39.455-33.167
			l0.181,0.301c0.334-0.469,1.39-1.331,3.167-2.589l0.619,0.353c-4.576,4.477-7.77,7.253-9.587,8.33
			c0.147,0.249-0.014,0.725-0.493,1.414c-0.521,0.038-0.91,0.131-1.163,0.279c-0.284,0.442-0.525,0.721-0.726,0.842l-0.182-0.306
			c-2.67,2.4-3.992,3.796-3.962,4.188c-0.202,0.122-0.576,0.239-1.119,0.356c-1.203,0.848-1.728,1.397-1.58,1.652
			c0.413,0.231,0.677,0.449,0.797,0.651l-2.5,1.477l-1.297,0.054c0.417,0.709,0.427,1.18,0.021,1.417l-0.303,0.18l-0.311-0.53
			l-0.684,0.404l0.178,0.303l0.694,0.307l-0.502,0.705l-0.786,0.057c-1.06,0.627-1.486,1.117-1.276,1.472l-1.724,0.712l-0.984,0.582
			c0.387,0.658-1.275,2.393-4.994,5.207c0.21,0.354-0.442,0.978-1.959,1.874c-1.278,0.485-2.172,0.877-2.675,1.175
			c0.33,0.557,0.288,0.952-0.112,1.191l-1.594,0.943l-0.813,0.175c-0.791,1.08-1.112,1.749-0.962,2.001
			c-4.932,4.216-10.121,8.922-15.563,14.118c-14.041,11.512-20.834,17.648-20.388,18.407c-0.691,6.199-2.572,15.797-5.649,28.794
			c-6,24.749-14.578,40.421-25.732,47.023c-4.529,2.136-8.08,3.386-10.66,3.753l-0.469,0.587
			c-12.312,1.423-20.407-1.144-24.289-7.702c-1.525-2.577-1.3-6.8,0.677-12.671c-0.595-1.008,2.634-4.934,9.697-11.77
			c0.958-0.566,1.532-1.043,1.712-1.425c0.203-0.115,0.365-0.075,0.482,0.125l2.093-1.646l6.359-3.765
			c1.352-0.596,2.145-0.691,2.384-0.288c-1.196,2.005-2.933,3.68-5.204,5.025l-0.178-0.303
			c-7.362,6.332-11.079,10.406-11.163,12.229c-3.313,5.571-3.849,10.251-1.608,14.036l0.692,0.304l0.474,1.663
			c4.056,3.053,8.722,4.377,14.005,3.977c2.145-0.179,5.874-1.362,11.188-3.553c4.565-3.455,7.329-6.214,8.287-8.279l0.814-0.177
			c9.226-13.775,15.906-34.324,20.042-61.646l-0.605,0.357c-5.153,4.074-9.067,6.903-11.742,8.485l-2.499,1.479
			c-7.038,3.074-11.797,2.519-14.276-1.67c-1.612-2.724-0.67-6.655,2.831-11.795l1.588-0.941c0.435-0.191,0.758-0.107,0.965,0.248
			l-0.771,3.014c0.482-0.221,0.83-0.154,1.037,0.2l0.316,0.528c-1.403,3.968-1.805,6.453-1.208,7.463l0.805,1.363
			c0.659,1.109,3.005,0.468,7.042-1.92c13.078-8.764,19.138-13.952,18.183-15.566l4.171-31.297
			c0.631-6.302,2.882-15.508,6.758-27.613c1.245-3.192,4.042-9.346,8.391-18.463l-0.175-0.302l-0.983,0.581
			c0.388,0.659-1.812,3.22-6.597,7.688c-2.269,2.843-8.088,9.42-17.453,19.732c-4.164,5.398-8.107,10.084-11.82,14.053
			c0.149,0.253-5.233,7.049-16.146,20.391c-7.011,8.649-14.784,16.76-23.319,24.332l-0.604,0.357l-0.181-0.301l-0.5,0.704
			l-0.91,0.539c-0.201,0.118-0.363,0.078-0.479-0.125c-1.144,0.95-1.67,1.5-1.58,1.652c-4.444,2.63-9.221,4.229-14.332,4.801
			c-6.093-0.619-10.02-2.417-11.782-5.397c-5.497-9.284-2.045-25.907,10.347-49.873C402.344,459.882,407.874,452.59,413.019,448.385
			z M517.173,406.567l1.286-0.76l0.358,0.606l-1.288,0.762L517.173,406.567z M531.391,392.939l0.357,0.606l1.286-0.762l-0.356-0.606
			L531.391,392.939z"/>
		<path fill="#8E1913" stroke="#8E1913" stroke-width="0.75" stroke-miterlimit="10" d="M496.967,513.187l0.906-0.538l0.181,0.302
			c-0.487,2.403-0.595,3.83-0.327,4.284l-1.816,1.075c0.331,0.555,0.384,1.339,0.167,2.354l-0.785,0.057
			c-0.555,0.327-0.785,1.554-0.687,3.677c-0.784,1.555-1.113,2.839-0.987,3.857l0.356,0.606l1.282-1.985l0.66,0.424
			c-0.004,2.184-0.232,3.412-0.688,3.68c0.21,0.354,0.359,2.444,0.447,6.277c0.073,1.046,0.528,2.277,1.366,3.689
			c1.075,1.818,3.53,1.591,7.367-0.68c4.592-2.717,10.335-7.751,17.229-15.104l2.367-2.221l0.538,0.91
			c0.239,0.403,0.156,0.724-0.248,0.963l-1.996,0.776c-0.562,1.354-0.708,2.255-0.438,2.711l0.179,0.303l-1.268-0.068l-0.303,0.182
			c0.509,0.855-2.105,4.038-7.84,9.545c0.358,0.605-0.269,1.389-1.885,2.346l-0.18-0.305l-1.211,0.715l0.178,0.306l0.606-0.359
			l0.359,0.605l-0.303,0.18l-1.694,0.594c0.239,0.403,0.156,0.724-0.246,0.963l-0.302,0.181c-0.203,0.118-0.365,0.078-0.482-0.122
			c-0.203,0.116-0.245,0.279-0.125,0.481c-4.694,2.775-9.4,2.428-14.115-1.05c-0.689-1.162-1.207-1.81-1.557-1.939
			c-1.435-2.423-1.014-9.082,1.265-19.973c1.177-3.421,2.195-5.387,3.054-5.893c0.289,0.371,0.609,0.455,0.964,0.245l0.604-0.356
			l-1.144-0.551L496.967,513.187z M494.417,526.146l0.909-0.537l0.356,0.604l-0.907,0.539L494.417,526.146z M497.467,520.248
			l0.181,0.304c0.149,0.252-0.118,0.956-0.798,2.107l-0.303,0.18l-1.019-1.031l0.302-0.178c0.203-0.122,0.363-0.079,0.482,0.121
			C496.73,520.962,497.117,520.461,497.467,520.248z M511.119,488.049l0.605-0.362c3.74-1.051,6.487-0.089,8.251,2.887
			c1.047,5.104-0.34,11.513-4.159,19.226c-2.036,3.932-3.86,6.375-5.475,7.328c-2.777,1.645-5.589,1.265-8.443-1.134
			c-0.188-0.435-0.104-0.756,0.249-0.963c1.418-0.023,2.606-0.319,3.566-0.886c4.138-2.448,7.436-9.31,9.9-20.58l-0.651-2.479
			l-0.179-0.303l-5.338,4.795l-0.357-0.605l-0.606,0.359c-0.905,1.693-1.255,2.717-1.045,3.074l-0.785,0.053l-0.909,0.538
			c-0.327,0.942-1.24,2.164-2.736,3.665c0.119,0.201-0.088,1.004-0.62,2.41c-0.473,0.006-0.935,0.145-1.39,0.416
			c0.119,0.2,0.198,0.564,0.233,1.087c0.203-0.122,0.363-0.079,0.483,0.122l-0.975,1.805l-1.817,1.076
			c0.298,0.505,0.398,1.129,0.289,1.873c-1.561,0.582-2.447,0.698-2.657,0.345c2.07-4.563,3.374-7.651,3.921-9.269
			c0.566-0.541,2.067-3.066,4.511-7.577c1.67-2.013,2.765-3.614,3.287-4.81L511.119,488.049z M498.456,516.395l0.606-0.359
			c0.149,0.254-0.057,1.056-0.619,2.409l-0.301,0.181l-0.178-0.302C497.784,518.021,497.948,517.375,498.456,516.395z
			 M499.13,514.768l0.539,0.909l-0.606,0.358l-0.178-0.302C498.695,515.301,498.777,514.979,499.13,514.768z M498.896,513.682
			c0.523-0.038,0.887-0.115,1.087-0.235c0.239,0.404,0.156,0.727-0.246,0.962l-0.606,0.359l-0.178-0.303L498.896,513.682z
			 M500.296,511.216l0.608-0.359c0.239,0.403,0.155,0.727-0.246,0.966l-0.607,0.355
			C499.864,511.746,499.945,511.426,500.296,511.216z M502.498,506.645l0.663,0.422l-0.549,1.146l-0.663-0.428L502.498,506.645z"/>
		<path fill="#8E1913" stroke="#8E1913" stroke-width="0.75" stroke-miterlimit="10" d="M503.517,608.878l0.659,0.426
			c0.239,0.404,0.159,0.725-0.246,0.964l-0.66-0.424C503.08,609.407,503.163,609.085,503.517,608.878z M535.068,468.757l1.214-0.717
			c1.629-0.01,2.533,0.136,2.712,0.438c-3.6,17.057-4.872,28.032-3.816,32.927c-0.452,2.924,0.487,7.96,2.807,15.104l0.357,0.604
			c0.927,1.566,1.867,2.235,2.827,2.011c3.363-2.604,6.471-7.718,9.324-15.332c3.744-10.602,7.638-26.127,11.682-46.579
			c0.201-0.121,0.616-1.727,1.236-4.822l0.305-0.178c2.27-1.344,4.18-1.112,5.727,0.697l-0.679,12.669
			c-0.517,0.51-0.748,2.421-0.698,5.728c-0.202,0.121-0.443,0.4-0.727,0.842c0.439,0.285,0.72,0.527,0.838,0.727
			c-0.438,3.872-0.557,7.352-0.364,10.44c-0.449,1.083-0.69,4.363-0.723,9.835c-0.708,2.256-0.962,4.588-0.767,6.994l-0.551,1.144
			l0.663,0.424c-0.657,2.571-0.81,4.16-0.45,4.767c-0.623,3.092-1.137,4.762-1.539,5.001c0.439,0.283,0.723,0.526,0.84,0.727
			c0.212,0.356-0.037,1.319-0.74,2.891c0.203-0.116,0.36-0.076,0.482,0.127l-2.206,15.615c0.117,3.885-0.69,7.358-2.418,10.428
			c0.688,1.16,0.602,2.165-0.257,3.014l-0.947,6.695c-0.456,3.947-1.215,6.58-2.278,7.889c-0.158,2.616-0.915,5.249-2.281,7.894
			c0.18,0.306,0.177,0.986-0.011,2.051c-0.09,1.349-0.966,3.096-2.626,5.234c0.184,1.119-0.004,2.183-0.563,3.197l-0.784,0.054
			c-0.46,3.136-1.057,5.124-1.787,5.964c-0.043,2.346-1.309,5.273-3.794,8.788l-3.119,7.164c-0.354,0.207-1.278,0.485-2.781,0.827
			l0.18,0.306l0.658,0.424c0.43,0.839-0.185,2.564-1.839,5.178c0.299,0.506-0.655,1.889-2.86,4.149
			c-1.012,2.095-2.55,4.098-4.624,6.006c0.538,0.908-2.134,3.99-8.022,9.245c-7.118,3.398-12.311,3.608-15.572,0.63l-1.542-3.989
			l-0.665-0.427c-0.418-0.708-0.805-3.203-1.163-7.491c-0.48-1.622-0.497-2.566-0.042-2.835l0.303-0.181
			c0.359,0.606,0.74,0.79,1.144,0.55l0.359,0.604l-1.211,0.717l0.359,0.605l1.141,0.553c0.239,0.404,0.057,0.785-0.551,1.144
			c0.123,0.201,0.402,0.441,0.844,0.727l0.591,1.694l0.786-0.054c-0.12-0.202-0.077-0.363,0.123-0.483l0.662,0.427l-1.211,0.717
			l0.178,0.303l1.628,0.674l0.178,0.302l-0.068,1.266c0.434-0.186,0.756-0.104,0.963,0.248l0.055,0.785
			c2.417,2.932,4.28,4.011,5.594,3.233c0.289,0.374,0.61,0.457,0.965,0.245l0.604-0.356c2.877-1.702,6.5-5.484,10.871-11.342
			c6.005-8.733,11.338-18.841,15.993-30.319c3.78-10.074,6.257-17.405,7.43-21.98c2.86-12.325,4.367-18.534,4.519-18.621
			c-0.388-0.657,0.155-4.115,1.632-10.372c1.672-14.21,2.36-21.567,2.061-22.073c0.68-0.47,0.915-3.063,0.712-7.781l1.738-17.793
			l-0.36-0.604l-1.168,3.555c-0.2,0.117-0.245,0.28-0.124,0.48c0.202-0.12,0.362-0.078,0.483,0.125
			c-3.027,9.626-4.462,14.566-4.313,14.818c-0.758,0.447-1.472,2.234-2.147,5.357c-2.44,6.354-5.805,10.798-10.096,13.337
			c-5.449,1.387-9.085,0.54-10.908-2.539c-4.479-7.571-5.287-20.45-2.423-38.637C532.057,473.677,533.404,469.743,535.068,468.757z
			 M561.197,530.165l0.357,0.607c0.303-0.18,0.427-0.661,0.37-1.447C561.64,529.767,561.397,530.048,561.197,530.165z"/>
		<path fill="#8E1913" stroke="#8E1913" stroke-width="0.75" stroke-miterlimit="10" d="M606.712,424.512
			c4.171-1.24,6.885-0.805,8.139,1.316c1.714,4.163,2.143,6.5,1.286,7.008l0.66,0.426c0.626,1.403,0.91,4.644,0.847,9.724
			c-0.32,1.759-0.289,2.964,0.1,3.621l-0.303,0.18l-1.265-0.069l0.178,0.305l1.378,1.636c-0.287,2.623-0.558,4.011-0.811,4.159
			c-0.474,0.008-0.937,0.145-1.389,0.414l0.896,1.516l0.55-1.145l0.662,0.428c-0.506,0.298-0.49,1.244,0.043,2.836
			c-0.505,0.299-0.569,0.88-0.192,1.749l-1.816,1.075l0.359,0.604c0.808-0.478,1.272-0.614,1.39-0.414
			c-0.068,1.268-0.014,2.053,0.167,2.355l-0.303,0.181c-0.203,0.118-0.363,0.077-0.483-0.124c-1.06,0.969-1.366,1.834-0.92,2.59
			l-1.39,0.412l-0.302,0.18l0.178,0.304c0.2-0.118,0.563-0.198,1.087-0.234c0.867,1.464,0.67,3.897-0.585,7.298
			c-0.645,1.676-0.772,2.842-0.385,3.496l-0.908,0.539l-0.179-0.301c-0.508-0.86-0.787-4.784-0.837-11.773l0.212-14.847
			l-0.243-10.078c0.021-1.921-0.48-5.302-1.507-10.146l-1.073-1.817c-1.011,0.595-1.636,0.694-1.874,0.288
			c0.2-0.117,0.243-0.279,0.123-0.482l-0.604,0.361c0.355,0.605,0.252,1.348-0.316,2.23l-1.693,0.592
			c0.245,0.877-0.266,1.859-1.527,2.949l0.358,0.606l-0.302,0.179l-0.786,0.057c0.837,1.411,0.043,2.835-2.38,4.27l0.181,0.302
			l1.212-0.718l0.358,0.607l-0.91,0.537l-1.265-0.068l-0.304,0.179c0.3,0.505,0.395,1.131,0.29,1.874
			c0.44,0.285,0.722,0.526,0.84,0.727l-0.303,0.181l-1.268-0.067c-0.401,0.238-0.708,1.102-0.92,2.59
			c-0.605,0.357-0.952,1.383-1.044,3.071l0.605-0.357c-0.358-0.608-0.135-1.149,0.673-1.627l0.181,0.302
			c0.269,0.456-0.501,1.457-2.311,3.004c0.129,1.832-0.261,3.018-1.168,3.556l0.661,0.424l0.536,0.91
			c0.24,0.403,0.156,0.724-0.246,0.963l-0.301,0.181l-0.54-0.907c-1.4,3.962-2.038,6.112-1.91,6.444l1.214-0.717l0.179,0.304
			c0.3,0.503-0.443,3.397-2.226,8.675l-0.304,0.182l0.067-1.269l-0.178-0.302l-0.303,0.18c-0.787,1.896-0.954,3.221-0.508,3.979
			c0.604-0.36,1.028-0.339,1.268,0.067c-1.194,4.66-2.404,12.055-3.631,22.188l-1.764,1.858c-3.199,0.122-5.066-0.271-5.604-1.18
			c-0.456-6.068-0.877-16.452-1.264-31.148c0.06-3.237-0.338-10.362-1.2-21.37l0.551-1.141c0.354-0.21,1.842,0,4.462,0.628
			l0.537,0.91c0.834,5.437,1.281,14.71,1.344,27.827l0.718,1.211c0.556-0.33,1.768-4.727,3.638-13.195
			c0.253-0.148,0.539-1.271,0.865-3.373c1.704-5.643,2.808-8.613,3.313-8.912c0.741-2.891,1.436-4.938,2.085-6.143
			c-0.048-1.47,1.724-5.381,5.324-11.737C604.228,426.53,605.603,425.17,606.712,424.512z M586.989,473.397l0.179,0.304
			c0.302-0.18,0.427-0.662,0.37-1.447l-0.303,0.18C586.861,472.724,586.776,473.044,586.989,473.397z M593.63,462.514l0.181,0.302
			c0.627-0.778,0.853-1.32,0.672-1.624l-0.604,0.359C593.504,461.842,593.423,462.162,593.63,462.514z M601.367,440.355l0.66,0.423
			l-0.426,0.661l-0.663-0.427L601.367,440.355z M616.044,458.241l0.304-0.177c0.402-0.238,0.289-1.127-0.347-2.657l-0.302,0.177
			C615.243,455.854,615.36,456.74,616.044,458.241z M615.909,440.742l0.178,0.303c0.303-0.182,0.428-0.663,0.37-1.446l-0.303,0.18
			C615.78,440.065,615.699,440.386,615.909,440.742z M616.601,466.092l0.303-0.179l0.36,0.606c0.237,0.402,0.154,0.723-0.247,0.961
			l-0.663-0.424C616.166,466.625,616.25,466.301,616.601,466.092z"/>
		<path fill="#8E1913" stroke="#8E1913" stroke-width="0.75" stroke-miterlimit="10" d="M641.923,407.147
			c1.261-0.747,3.126-0.42,5.589,0.983l0.136,0.228c0.148,0.253,0.023,0.67-0.383,1.25c-1.393,0.412-2.515,0.874-3.374,1.381
			c-6.654,6.258-11.188,13.165-13.598,20.725c-0.167,0.983-0.067,1.777,0.289,2.385c1.881,0.184,8.229-1.701,19.044-5.648
			c1.311-0.777,3.859-0.271,7.64,1.51l0.135,0.225c1.76,2.979-0.774,9.113-7.609,18.407c-0.126,0.825-1.052,2.427-2.775,4.813
			l-0.615-0.353l0.53-0.315l-0.182-0.304l-0.527,0.317c0.477,0.807,0.099,2.122-1.141,3.942c-0.353,0.212-0.637,0.141-0.844-0.213
			c-0.239-0.405,0.027-0.938,0.794-1.597l-0.136-0.225l-1.058,0.627l-0.434,1.686c-0.421-0.021-0.81,0.072-1.163,0.281l0.012,0.708
			c0.947-0.356,1.524-0.356,1.734-0.004c-0.346,0.681-0.747,1.155-1.197,1.425l-0.836,0.492c-0.15,0.09-0.271,0.06-0.36-0.09
			l-0.396,0.539l-0.664,0.088l0.01,0.707l0.531-0.313l0.313,0.529c-0.15,0.09-0.357,0.316-0.624,0.677l-1.421,0.532l-2.644,3.305
			l-1.579,1.649l-0.135-0.226c-0.007-0.474-0.07-0.813-0.189-1.014c-0.412-0.234-0.662-0.426-0.75-0.578
			c0.459-1.295,4.2-6.949,11.221-16.965c3.645-6.044,5.461-9.367,5.444-9.971c1.868-2.943,2.535-5.215,2.001-6.807
			c-2.475,0.307-6.937,1.752-13.378,4.342c-6.851,2.01-11.323,1.248-13.412-2.283c-0.84-1.414-0.263-4.242,1.723-8.485
			C633.076,415.688,637.836,409.567,641.923,407.147z M630.293,470.05l0.226-0.133c0.384-0.157,0.663-0.089,0.844,0.216l-0.397,0.54
			l-0.539-0.396L630.293,470.05z M632.666,466.807l0.983-0.586c0.384,1-0.027,1.858-1.239,2.575l-0.178-0.302
			C632.083,468.24,632.229,467.68,632.666,466.807z M645.238,453.332l0.01,0.711l0.834-0.492
			C645.87,453.195,645.591,453.125,645.238,453.332z"/>
		<path fill="#8E1913" stroke="#8E1913" stroke-width="0.75" stroke-miterlimit="10" d="M666.225,359.436l3.857,0.99l0.303-0.178
			l1.831-3.128l0.605-0.359c0.604-0.358,1.145-0.135,1.624,0.672c1.614,2.725,1.033,5.661-1.741,8.801l-2.12,1.254
			c-2.714-0.437-4.399-1.213-5.056-2.323l-0.896-1.514C664.484,361.561,665.017,360.153,666.225,359.436z M671.562,385.719
			c2.682,0.39,4.188,0.862,4.517,1.417c0.55,5.878-0.389,17.88-2.811,36.009c-0.845,8.135-1.493,12.333-1.945,12.602
			c-1.163,0.688-1.764,4.045-1.811,10.067c0.808-0.478,1.33-0.514,1.567-0.11l-0.424,0.66c-0.474,0.007-0.939,0.144-1.392,0.414
			c0.155,0.727-0.269,1.387-1.279,1.984l-0.303,0.178l-0.357-0.604c-0.954-1.616-0.54-10.586,1.247-26.906
			c1.674-14.213,2.301-21.672,1.885-22.38c0.227-0.884,0.289-5.147,0.195-12.792L671.562,385.719z M670.304,434.715l0.355,0.605
			l0.303-0.18c0.348-0.34,0.452-1.083,0.316-2.229l-0.605,0.359C670.371,433.447,670.247,433.931,670.304,434.715z M670.375,442.438
			l0.607-0.356l0.179,0.303c0.135,1.146,0.031,1.891-0.313,2.229l-0.359-0.604C670.592,443.264,670.556,442.742,670.375,442.438z
			 M671.075,436.709l0.66,0.429c0.181,1.801-0.029,3.29-0.63,4.462l-0.301,0.182l-0.181-0.306c-0.182-1.802,0.01-2.866,0.563-3.196
			C670.709,437.472,670.671,436.949,671.075,436.709z M671.068,427.719l0.304-0.18c0.285-0.441,0.526-0.719,0.727-0.84l-0.356-0.605
			C671.112,426.875,670.891,427.417,671.068,427.719z"/>
		<path fill="#8E1913" stroke="#8E1913" stroke-width="0.75" stroke-miterlimit="10" d="M714.815,360.527
			c4.168-1.243,6.883-0.805,8.139,1.315c1.715,4.167,2.143,6.499,1.286,7.009l0.659,0.426c0.627,1.401,0.908,4.643,0.848,9.72
			c-0.32,1.76-0.288,2.966,0.099,3.623l-0.302,0.18l-1.268-0.068l0.18,0.303l1.378,1.637c-0.285,2.621-0.557,4.011-0.81,4.159
			c-0.474,0.007-0.938,0.145-1.389,0.413l0.895,1.514l0.549-1.142l0.663,0.427c-0.505,0.298-0.492,1.242,0.042,2.835
			c-0.504,0.298-0.567,0.882-0.19,1.75l-1.818,1.074l0.361,0.606c0.807-0.478,1.27-0.615,1.39-0.412
			c-0.067,1.265-0.014,2.05,0.167,2.354l-0.303,0.178c-0.203,0.12-0.363,0.077-0.483-0.125c-1.059,0.971-1.365,1.833-0.92,2.59
			l-1.389,0.415l-0.306,0.178l0.179,0.305c0.202-0.122,0.565-0.198,1.089-0.237c0.866,1.464,0.67,3.895-0.585,7.296
			c-0.644,1.679-0.772,2.842-0.384,3.5l-0.909,0.539l-0.178-0.302c-0.509-0.86-0.788-4.783-0.838-11.774l0.212-14.845l-0.243-10.081
			c0.022-1.92-0.48-5.301-1.507-10.146l-1.076-1.818c-1.008,0.6-1.632,0.695-1.872,0.293c0.201-0.121,0.241-0.282,0.124-0.482
			l-0.606,0.356c0.357,0.607,0.254,1.349-0.313,2.233l-1.694,0.591c0.245,0.879-0.265,1.86-1.526,2.95l0.357,0.604l-0.304,0.181
			l-0.786,0.054c0.84,1.412,0.046,2.837-2.377,4.272l0.181,0.302l1.209-0.717l0.36,0.604l-0.908,0.537l-1.269-0.068l-0.301,0.181
			c0.3,0.504,0.395,1.127,0.29,1.872c0.44,0.284,0.72,0.527,0.84,0.73l-0.303,0.178l-1.268-0.07c-0.403,0.239-0.71,1.105-0.92,2.592
			c-0.605,0.358-0.952,1.382-1.044,3.069l0.606-0.356c-0.359-0.604-0.136-1.148,0.672-1.626l0.18,0.305
			c0.27,0.452-0.5,1.453-2.312,3.002c0.131,1.831-0.259,3.016-1.166,3.552l0.661,0.427l0.536,0.909
			c0.239,0.401,0.156,0.724-0.246,0.963l-0.304,0.178l-0.54-0.907c-1.397,3.965-2.035,6.113-1.907,6.446l1.212-0.717l0.178,0.302
			c0.3,0.505-0.442,3.397-2.225,8.678l-0.302,0.178l0.068-1.268l-0.18-0.302l-0.304,0.181c-0.785,1.895-0.952,3.221-0.506,3.978
			c0.604-0.356,1.029-0.333,1.268,0.069c-1.195,4.66-2.404,12.056-3.634,22.187l-1.761,1.86c-3.198,0.122-5.067-0.272-5.604-1.18
			c-0.458-6.067-0.88-16.45-1.264-31.147c0.06-3.238-0.34-10.361-1.2-21.368l0.552-1.146c0.351-0.208,1.839,0.002,4.461,0.632
			l0.537,0.907c0.833,5.438,1.28,14.713,1.344,27.831l0.718,1.21c0.554-0.329,1.769-4.727,3.636-13.195
			c0.253-0.151,0.541-1.274,0.867-3.375c1.704-5.641,2.808-8.611,3.311-8.912c0.744-2.892,1.439-4.94,2.088-6.142
			c-0.05-1.469,1.724-5.38,5.324-11.736C712.328,362.544,713.704,361.185,714.815,360.527z M695.091,409.413l0.178,0.301
			c0.305-0.18,0.43-0.66,0.373-1.445l-0.306,0.177C694.962,408.736,694.881,409.058,695.091,409.413z M701.733,398.529l0.18,0.302
			c0.627-0.78,0.854-1.324,0.673-1.626l-0.604,0.361C701.606,397.854,701.526,398.174,701.733,398.529z M709.471,376.367
			l0.657,0.426l-0.423,0.661l-0.664-0.426L709.471,376.367z M724.147,394.258l0.303-0.18c0.403-0.239,0.29-1.126-0.345-2.657
			l-0.303,0.178C723.347,391.868,723.464,392.754,724.147,394.258z M724.01,376.754l0.181,0.303c0.303-0.178,0.426-0.659,0.37-1.443
			l-0.302,0.178C723.884,376.081,723.803,376.403,724.01,376.754z M724.704,402.106l0.303-0.178l0.359,0.604
			c0.236,0.402,0.154,0.725-0.249,0.963l-0.661-0.426C724.27,402.636,724.353,402.316,724.704,402.106z"/>
		<path fill="#8E1913" stroke="#8E1913" stroke-width="0.75" stroke-miterlimit="10" d="M764.625,331.042
			c4.174-1.24,6.885-0.803,8.14,1.317c1.717,4.164,2.146,6.501,1.286,7.006l0.661,0.429c0.628,1.403,0.906,4.642,0.849,9.72
			c-0.325,1.759-0.289,2.966,0.1,3.622l-0.306,0.178l-1.265-0.068l0.178,0.303l1.379,1.638c-0.288,2.626-0.559,4.01-0.809,4.16
			c-0.474,0.009-0.938,0.144-1.391,0.415l0.896,1.516l0.549-1.146l0.665,0.429c-0.506,0.297-0.493,1.243,0.04,2.835
			c-0.506,0.299-0.569,0.882-0.189,1.748l-1.819,1.076l0.359,0.607c0.808-0.478,1.271-0.618,1.393-0.415
			c-0.068,1.268-0.015,2.052,0.167,2.354l-0.306,0.18c-0.2,0.118-0.363,0.077-0.48-0.126c-1.063,0.97-1.369,1.834-0.92,2.592
			l-1.392,0.413l-0.305,0.181l0.18,0.302c0.205-0.12,0.565-0.198,1.089-0.234c0.865,1.461,0.671,3.895-0.587,7.297
			c-0.643,1.676-0.772,2.844-0.385,3.498l-0.905,0.538l-0.182-0.303c-0.507-0.857-0.784-4.782-0.834-11.772l0.21-14.844
			l-0.241-10.078c0.021-1.922-0.482-5.306-1.51-10.148l-1.074-1.816c-1.01,0.596-1.635,0.693-1.873,0.289
			c0.203-0.12,0.243-0.28,0.124-0.483l-0.607,0.358c0.361,0.607,0.255,1.352-0.313,2.231l-1.693,0.593
			c0.247,0.877-0.263,1.861-1.524,2.948l0.355,0.607l-0.302,0.178l-0.785,0.057c0.837,1.415,0.045,2.835-2.378,4.27l0.178,0.302
			l1.212-0.717l0.358,0.606l-0.908,0.54l-1.268-0.07l-0.303,0.178c0.3,0.505,0.397,1.13,0.291,1.874
			c0.439,0.285,0.72,0.525,0.842,0.729l-0.303,0.18l-1.269-0.067c-0.405,0.24-0.712,1.101-0.919,2.589
			c-0.606,0.356-0.955,1.381-1.047,3.072l0.607-0.361c-0.359-0.604-0.134-1.146,0.674-1.624l0.18,0.302
			c0.267,0.454-0.503,1.455-2.313,3.004c0.131,1.832-0.257,3.014-1.167,3.553l0.661,0.426l0.537,0.907
			c0.239,0.406,0.158,0.727-0.248,0.965l-0.303,0.181l-0.537-0.909c-1.4,3.963-2.038,6.113-1.907,6.444l1.208-0.717l0.182,0.305
			c0.297,0.503-0.442,3.397-2.224,8.677l-0.303,0.181l0.067-1.268l-0.181-0.302l-0.303,0.178c-0.784,1.895-0.954,3.224-0.505,3.979
			c0.604-0.358,1.025-0.336,1.267,0.068c-1.193,4.662-2.408,12.056-3.636,22.186l-1.758,1.861c-3.199,0.122-5.067-0.271-5.606-1.18
			c-0.457-6.07-0.877-16.45-1.262-31.148c0.061-3.239-0.342-10.363-1.199-21.37l0.551-1.144c0.353-0.209,1.842,0.002,4.461,0.63
			l0.538,0.909c0.829,5.438,1.278,14.713,1.339,27.828l0.719,1.213c0.557-0.329,1.771-4.728,3.641-13.195
			c0.251-0.148,0.54-1.274,0.866-3.374c1.702-5.644,2.805-8.612,3.311-8.91c0.741-2.895,1.438-4.94,2.088-6.145
			c-0.051-1.471,1.724-5.381,5.321-11.738C762.139,333.059,763.516,331.701,764.625,331.042z M744.902,379.926l0.18,0.305
			c0.302-0.178,0.427-0.661,0.37-1.446l-0.303,0.178C744.775,379.254,744.693,379.574,744.902,379.926z M751.547,369.045
			l0.178,0.303c0.63-0.78,0.853-1.322,0.675-1.625l-0.606,0.356C751.421,368.37,751.337,368.693,751.547,369.045z M759.284,346.883
			l0.658,0.426l-0.427,0.659l-0.661-0.424L759.284,346.883z M773.958,364.773l0.303-0.181c0.406-0.237,0.291-1.123-0.343-2.657
			l-0.305,0.181C773.16,362.384,773.276,363.271,773.958,364.773z M773.823,347.271l0.181,0.303c0.303-0.178,0.424-0.662,0.37-1.446
			l-0.303,0.18C773.697,346.597,773.613,346.917,773.823,347.271z M774.518,372.622l0.303-0.18l0.356,0.607
			c0.238,0.403,0.157,0.724-0.247,0.963l-0.659-0.426C774.08,373.152,774.161,372.83,774.518,372.622z"/>
	</g>
</g>
<g display="none">
	<path display="inline" fill="#8E1913" stroke="#8E1913" stroke-width="0.25" stroke-miterlimit="10" d="M620.729,528.593
		c1.822-1.033,2.828-1.42,3.013-1.16l0.673,0.953c-4.765,3.727-9.141,11.269-13.127,22.63c-2.902,10.202-2.942,17.295-0.123,21.271
		c1.615,2.279,4.488,2.236,8.616-0.131l1.813-1.287c0.117-0.082,0.207-0.079,0.267,0.004c0.172-0.246,0.311-0.413,0.429-0.496
		c4.584-3.248,10.691-10.764,18.32-22.545c0.434-0.307,2.616-3.521,6.545-9.647c8.392-11.318,12.731-17.085,13.021-17.289
		c7.985-10.426,15.911-19.625,23.778-27.59c6.312-6.855,14.221-14.369,23.716-22.537c0.149-0.104,0.262-0.095,0.344,0.018
		c1.821-1.769,6.292-5.174,13.412-10.224l0.437-0.119c0.171-0.245,0.384-0.467,0.646-0.646l0.387-0.281
		c0.113-0.078,0.203-0.076,0.267,0.01c0.113-0.082,0.14-0.167,0.081-0.252l0.997-0.518c5.63-3.73,8.751-5.465,9.365-5.208
		l0.126,0.171c-3.744,2.48-6.207,3.989-7.389,4.522l-0.267,0.45c-0.086,0.061-0.487,0.261-1.2,0.592
		c-0.09,0.062-0.41,0.378-0.962,0.941c-0.311,0.049-0.54,0.121-0.685,0.227l-0.221,0.417l-1.205,0.593
		c-0.288,0.205-0.491,0.438-0.608,0.694l-1.332,0.423c-0.147,0.275-0.292,0.467-0.438,0.568c-0.311,0.051-0.527,0.113-0.645,0.197
		l0.077,0.467c-1.493,0.889-2.369,1.336-2.626,1.34c0.226,0.32,0.222,0.56-0.01,0.723c-0.111,0.083-0.203,0.08-0.261-0.008
		l-0.298,0.408l-0.176,0.122l-0.211-0.302l-0.349,0.699l-0.52,0.37c-0.288,0.203-0.563,0.335-0.824,0.387
		c-0.263,0.491-0.551,0.85-0.866,1.071l-0.564,0.4l-0.735,0.063l-0.735,0.523c-0.235,0.646-0.672,1.191-1.304,1.643l-2.896,2.053
		l-0.307,0.666l-0.171,0.125c-0.145,0.102-0.257,0.098-0.339-0.02l-0.225,0.42l-1.255,0.889l0.217,0.302l-1.389,0.792l-0.173,0.123
		c0.145,0.198,0.153,0.342,0.041,0.422c-0.145,0.103-0.374,0.18-0.687,0.229l-0.784,0.815l-0.47,0.072
		c-0.635,0.627-1.019,1.375-1.137,2.239l-0.347,0.245l-0.095-0.129l-0.072-0.47l-0.344,0.243c-0.243,0.218-0.287,0.426-0.144,0.623
		l-0.862,0.352c-1.682,1.412-2.391,2.305-2.124,2.677l-0.392,0.279l-0.213-0.304l-2.162,1.533c0.366,0.518,0.42,0.869,0.163,1.052
		l-0.175,0.122c-0.227-0.315-0.452-0.393-0.683-0.229l-0.563,0.4l0.727,0.198l-0.267,0.448l-0.171,0.124l-0.339-0.477l-0.171,0.121
		c0.071,0.902-0.55,1.824-1.877,2.762c-0.519,0.067-0.952,0.218-1.294,0.464l0.388,0.181l0.211,0.303l-1.475,1.31
		c-0.374,0.265-0.717,0.183-1.023-0.251l-0.173,0.123c-0.18,0.605-0.423,1.018-0.743,1.24l0.122,0.175l0.694-0.489
		c0.176-0.301,0.32-0.49,0.438-0.574c0.186,0.258-0.975,1.71-3.479,4.351c-0.866,0.485-1.565,0.914-2.084,1.28l-1.077,0.767
		c0.144,0.204,0.4,0.171,0.774-0.095l0.123,0.172c0.185,0.262-0.308,0.848-1.477,1.764c-0.08-0.115-0.18-0.131-0.293-0.05
		c0.222,0.316-0.649,1.413-2.615,3.28c-0.142-0.199-0.33-0.219-0.56-0.055c0.247,0.345-0.253,1.326-1.489,2.941
		c0.247,0.346-0.957,2.864-3.604,7.561c-2.297,5.438-3.866,9.887-4.705,13.343c-1.565,6.53-2.419,13.63-2.563,21.311l-0.456,10.074
		c-0.004,0.305,0.036,0.513,0.122,0.628l0.217-0.151c4.421-4.57,8.052-8.163,10.876-10.773c1.069-1.362,3.271-3.636,6.601-6.821
		c6.748-7.038,14.098-14.332,22.046-21.875l0.123,0.171c0.179-0.298,0.771-0.867,1.775-1.713l0.39,0.183
		c-2.527,2.916-4.309,4.737-5.346,5.475c0.104,0.148,0.025,0.437-0.226,0.879c-0.313,0.047-0.541,0.121-0.683,0.224
		c-0.148,0.279-0.284,0.46-0.396,0.541l-0.121-0.174c-1.484,1.571-2.211,2.477-2.176,2.711c-0.111,0.082-0.332,0.17-0.652,0.27
		c-0.683,0.569-0.966,0.924-0.866,1.066c0.257,0.121,0.428,0.238,0.51,0.354l-1.427,1.014l-0.775,0.094
		c0.283,0.406,0.315,0.688,0.08,0.854l-0.171,0.122l-0.217-0.303l-0.387,0.274l0.121,0.172l0.433,0.151l-0.266,0.448l-0.469,0.072
		c-0.605,0.429-0.835,0.745-0.691,0.948l-1.001,0.514l-0.563,0.399c0.266,0.375-0.65,1.499-2.743,3.372
		c0.144,0.203-0.217,0.609-1.082,1.223c-0.745,0.356-1.259,0.634-1.547,0.838c0.225,0.316,0.221,0.561-0.01,0.723l-0.907,0.645
		l-0.482,0.146c-0.42,0.689-0.581,1.104-0.478,1.25c-2.757,2.775-5.636,5.858-8.645,9.252c-7.863,7.608-11.639,11.631-11.333,12.062
		c-0.107,3.76-0.762,9.619-1.962,17.573c-2.377,15.159-6.753,24.997-13.122,29.515c-2.613,1.509-4.684,2.434-6.213,2.783
		l-0.252,0.377c-7.322,1.466-12.312,0.324-14.969-3.423c-1.047-1.472-1.119-4.016-0.222-7.642c-0.41-0.58,1.336-3.092,5.237-7.549
		c0.547-0.389,0.872-0.704,0.962-0.939c0.113-0.08,0.212-0.064,0.292,0.05l1.175-1.091l3.631-2.576
		c0.784-0.427,1.258-0.523,1.421-0.293c-0.623,1.263-1.578,2.355-2.878,3.275l-0.122-0.175c-4.105,4.172-6.141,6.801-6.095,7.897
		c-1.714,3.514-1.805,6.35-0.271,8.508l0.432,0.152l0.366,0.977c2.586,1.628,5.454,2.194,8.607,1.691
		c1.277-0.213,3.461-1.11,6.542-2.688c2.57-2.302,4.092-4.097,4.565-5.384l0.483-0.148c4.853-8.729,7.849-21.396,8.977-38.011
		l-0.348,0.244c-2.892,2.701-5.102,4.597-6.631,5.68l-1.427,1.009c-4.073,2.197-6.961,2.101-8.657-0.292
		c-1.104-1.557-0.73-3.966,1.115-7.228l0.907-0.644c0.253-0.133,0.45-0.1,0.59,0.102l-0.311,1.848
		c0.28-0.154,0.491-0.129,0.631,0.069l0.217,0.304c-0.645,2.449-0.763,3.963-0.353,4.543l0.552,0.776
		c0.451,0.632,1.827,0.135,4.132-1.503c7.417-5.91,10.801-9.327,10.146-10.249l0.952-19.002c0.067-3.814,0.965-9.455,2.689-16.917
		c0.591-1.977,1.962-5.811,4.122-11.504l-0.121-0.171l-0.56,0.396c0.267,0.374-0.93,2.023-3.581,4.944
		c-1.224,1.82-4.391,6.059-9.501,12.717c-2.233,3.446-4.367,6.454-6.401,9.023c0.099,0.144-2.793,4.492-8.685,13.046
		c-3.78,5.544-8.044,10.801-12.794,15.767l-0.348,0.249l-0.122-0.177l-0.267,0.451l-0.519,0.368
		c-0.116,0.083-0.216,0.064-0.297-0.053c-0.642,0.63-0.93,0.989-0.866,1.071c-2.536,1.799-5.328,2.996-8.368,3.594
		c-3.69-0.067-6.137-0.951-7.345-2.652c-3.759-5.306-2.513-15.461,3.739-30.47C614.891,536.027,617.851,531.376,620.729,528.593z"/>
	
		<rect x="681.237" y="498.016" transform="matrix(-0.817 0.5766 -0.5766 -0.817 1525.9269 512.1863)" display="inline" fill="#8E1913" stroke="#8E1913" stroke-width="0.25" stroke-miterlimit="10" width="0.906" height="0.421"/>
	
		<rect x="689.341" y="488.885" transform="matrix(-0.5815 -0.8136 0.8136 -0.5815 692.3848 1334.8685)" display="inline" fill="#8E1913" stroke="#8E1913" stroke-width="0.25" stroke-miterlimit="10" width="0.425" height="0.902"/>
	<path display="inline" fill="#8E1913" stroke="#8E1913" stroke-width="0.25" stroke-miterlimit="10" d="M686.138,541.472
		l0.349-0.247c0.806-0.568,1.948-0.425,3.424,0.433c0.901,1.268,1.122,3.537,0.667,6.804l-0.172,0.122l0.415,0.225
		c-0.172,0.121-0.222,0.42-0.148,0.889c0.172-0.124,0.469-0.074,0.884,0.149c0.146,0.202-0.031,1.541-0.527,4.014l-0.177,0.124
		l-0.468,0.073l0.37,0.519l-0.989,0.44c-0.518,1.407-0.708,2.237-0.573,2.487l0.244,0.345l0.172-0.121
		c0.514-1.229,0.69-1.961,0.527-2.193l0.221-0.417l0.177-0.124l0.243,0.348c0.082,0.116-0.267,1.579-1.051,4.384l-0.348,0.246
		l-0.243-0.346l-0.52,0.367l0.123,0.172c0.166,0.231,0.418,0.225,0.767-0.021l0.121,0.174c0.162,0.23,0.132,0.428-0.1,0.591
		l-0.175,0.121l-1.061-0.025c0.104,0.144-0.189,1.562-0.876,4.258l0.123,0.173l0.171-0.125c0.117-0.077,0.297-0.554,0.55-1.425
		l0.171-0.124c0.104,0.147-0.081,1.23-0.549,3.254l-0.176,0.121c-0.082-0.116-0.263-0.246-0.541-0.395
		c-0.149,0.278-0.281,0.461-0.398,0.541l0.249,0.343l0.343-0.243l0.121,0.174c0.145,0.2-0.014,0.834-0.474,1.896l-0.518,0.366
		l-0.245-0.346c-0.121,0.26-0.311,0.48-0.567,0.663l0.37,0.52l0.27-0.713l0.173-0.124l0.368,0.519
		c-0.261,0.186-0.93,2.05-2.017,5.589c-0.288,0.202-0.974,1.562-2.056,4.06l-2.229,2.36c-3.167,1.642-5.467,1.452-6.897-0.565
		l-0.37-0.52c-1.104-1.56-1.511-4.819-1.223-9.79c-0.163-0.23-0.045-0.918,0.353-2.067c-0.289-0.405-0.104-1.488,0.555-3.254
		c-0.185-0.26,0.632-3.262,2.445-9.013c1.691-3.107,3.338-5.92,4.931-8.437c1.628-1.674,2.604-2.625,2.918-2.851l0.866-0.613
		c0.113-0.083,0.61,0.003,1.48,0.252l0.364,0.519c0.167,0.232-1.194,1.976-4.082,5.235c-3.04,5.189-4.963,9.933-5.77,14.227
		c-0.821,3.054-1.16,6.244-1.015,9.562c0.076,2.069,0.464,3.958,1.163,5.673c0.551,0.476,0.929,0.641,1.132,0.497
		c2.044-1.45,4.192-5.14,6.443-11.068l3.271-11.154l0.667-1.256l-0.42-0.224l1.254-5.568l0.47-8.131l-0.685-1.333
		c-1.093,0.169-1.955,0.176-2.59,0.016L686.138,541.472z M689.878,550.774l0.42,0.227l0.364,0.519
		c-0.144,0.103-0.396,0.717-0.767,1.846l0.243,0.347l0.349-0.246c0.229-0.164,0.356-1.207,0.378-3.128l0.172-0.122
		c-0.162-0.23-0.36-0.267-0.592-0.104C690.328,550.373,690.139,550.592,689.878,550.774z"/>
	<path display="inline" fill="#8E1913" stroke="#8E1913" stroke-width="0.25" stroke-miterlimit="10" d="M688.011,557.303
		l0.243,0.345l0.348-0.245c0.172-0.123,0.222-0.419,0.148-0.887l-0.347,0.245C688.254,557.042,688.122,557.221,688.011,557.303z"/>
	<path display="inline" fill="#8E1913" stroke="#8E1913" stroke-width="0.25" stroke-miterlimit="10" d="M690.716,543.164
		c0.253-0.136,0.452-0.1,0.592,0.1c0.167,0.231,0.131,0.428-0.1,0.591L690.716,543.164z"/>
	<path display="inline" fill="#8E1913" stroke="#8E1913" stroke-width="0.25" stroke-miterlimit="10" d="M691.475,544.965
		l0.177-0.123l0.121,0.173c0.022,1.199-0.035,1.844-0.181,1.947l-0.171,0.122l-0.126-0.173
		C691.304,545.697,691.361,545.048,691.475,544.965z"/>
	<path display="inline" fill="#8E1913" stroke="#8E1913" stroke-width="0.25" stroke-miterlimit="10" d="M791.138,465.119
		c-1.801,1.064-2.883,1.615-3.244,1.656l0.153,0.217c-0.117,0.08-0.658,0.355-1.624,0.827l-0.297,0.404
		c-0.063-0.087-0.149-0.087-0.267-0.008l-1.294,0.921l-1.317,0.8c0.04,0.06-0.01,0.141-0.153,0.245
		c-0.082-0.118-0.249-0.109-0.502,0.025l-0.171,0.123c-0.289,0.203-0.506,0.424-0.645,0.649c-0.271,0.108-1.069,0.541-2.387,1.308
		l-1.033,0.926c-0.203,0.143-0.37,0.152-0.502,0.027c-0.201,0.144-0.278,0.309-0.233,0.493c-0.897,0.507-1.525,0.782-1.887,0.819
		l-0.175,0.121c-0.203,0.145-0.28,0.31-0.235,0.494l-0.975,0.559l-0.558,0.396l-0.285,0.332c-0.104-0.144-0.965,0.319-2.594,1.386
		c0.044,0.06-0.01,0.136-0.154,0.239l-0.406,0.157l-0.329,0.362l-1.312,0.803l-0.33,0.365l-1.06,0.424l-0.253,0.377
		c-1.431,0.799-3.081,1.86-4.958,3.189l-0.844,0.728c-0.275,0.108-1.927,1.131-4.972,3.073l-0.889,0.758
		c-1.543,1.008-2.354,1.54-2.44,1.602l-0.673,0.608c-0.04-0.058-0.121-0.044-0.234,0.036c-0.289,0.204-0.514,0.406-0.671,0.604
		l-0.41,0.163c-0.316,0.225-0.786,0.6-1.409,1.127c-0.117,0.082-0.51,0.32-1.187,0.71l-0.283,0.333l-0.37-0.063l-0.817,0.776
		l-0.734,0.518c-0.492,0.351-1.2,0.786-2.125,1.313l-0.252,0.374l-1.174,0.636l-3.5,2.485l-1.39,0.791
		c0.058,0.085,0.036,0.171-0.081,0.252c-1.16,0.689-1.863,1.129-2.126,1.314c-0.117,0.08-0.257,0.245-0.424,0.495l-0.094-0.132
		c-1.033,0.867-1.62,1.349-1.764,1.448c-0.321,0.227-0.84,0.53-1.566,0.917l-0.253,0.373c-1.159,0.689-1.867,1.129-2.124,1.313
		c-0.605,0.43-1.309,0.988-2.112,1.692c-1.389,0.854-2.232,1.346-2.534,1.472c-0.19,0.221-0.416,0.424-0.673,0.605l-2.03,1.442
		c-0.491,0.348-1.128,0.862-1.898,1.541c-0.32,0.097-0.537,0.187-0.655,0.269c-1.208,0.986-1.912,1.552-2.11,1.693
		c-0.7,0.363-1.105,0.586-1.218,0.668c0.063,0.086,0.036,0.172-0.081,0.252l-0.09-0.128l-1.206,1.046
		c-0.117,0.084-0.319,0.162-0.613,0.238l-0.297,0.406c-0.487,0.349-1.183,0.773-2.08,1.282l-0.298,0.406
		c-0.293,0.077-0.51,0.167-0.653,0.271l-2.193,1.944c-0.262,0.186-0.537,0.311-0.83,0.393l-0.253,0.374
		c-0.866,0.613-1.903,1.22-3.121,1.827l-0.063-0.088c0.38-2.092,0.613-4.357,0.698-6.804c0.245-4.111,0.43-6.299,0.547-6.559
		c0.099-2.366,0.203-3.652,0.315-3.862l0.637-13.122l0.577-13.212c-0.146-0.198-1.001-0.091-2.567,0.325l-0.343,0.246
		c-0.356,0.295-0.55,1.211-0.587,2.753c-0.13,7.327-0.261,11.144-0.387,11.454c0.104,1.917,0.086,2.928-0.06,3.027
		c0.027,1.63-0.067,3.451-0.284,5.468c0.153,2.23,0.067,3.523-0.239,3.876c0.141,1.24,0.05,2.949-0.265,5.127
		c0.221,1.531,0.13,2.442-0.276,2.727c0.203,0.898,0.19,1.793-0.04,2.693c-0.213,4.223-0.456,6.717-0.74,7.479
		c0.33,0.46-0.546,1.427-2.62,2.898l-1.391,0.79c-1.696,1.331-2.647,2.072-2.847,2.214c-0.09,0.063-0.482,0.273-1.173,0.64
		c0.06,0.083,0.032,0.171-0.081,0.251c-0.293,0.078-0.568,0.206-0.83,0.392l-1.683,1.194l-1.164,1.02
		c-0.063-0.087-0.149-0.087-0.266-0.006c-0.804,0.699-1.448,1.223-1.94,1.569l-5.143,3.65l-0.849,0.73
		c-0.004-0.007-0.026,0.005-0.036,0c-0.587,0.71-1.204,1.381-1.845,2.024c-0.866,1.143-1.674,2.336-2.68,3.354l0.036-0.027
		l1.047-0.546c-0.063-0.087-0.036-0.173,0.081-0.253l0.09,0.13c0.118-0.08,0.275-0.257,0.47-0.527l1.173-0.636l1.3-0.92l0.812-0.773
		c0.063,0.088,0.283-0.005,0.659-0.269l0.563-0.402l0.983-0.892l0.441-0.119c1.29-1.046,4.123-3.161,8.494-6.347l1.359-0.835
		c0.649-0.547,1.61-1.27,2.878-2.169l0.735-0.524c0.434-0.304,0.997-0.664,1.701-1.077c0.104-0.16,0.504-0.483,1.194-0.976
		l0.218-0.151c0.144,1.541,0.175,2.904,0.104,4.084c-0.281,1.5-0.523,2.318-0.727,2.461c0.185,2.644-0.01,5.728-0.587,9.252
		c0.29,0.713,0.315,1.144,0.085,1.31c0.285,1.441,0.205,2.607-0.251,3.491l0.058,0.09l0.325,0.09
		c-0.343,0.249-0.515,1.041-0.515,2.384c-0.311,5.547-0.365,8.471-0.162,8.755c-0.104,3.026-0.072,5.273,0.108,6.748l0.153,0.217
		l0.636,0.069l0.06,0.089l-1.012,0.587l0.153,0.217l0.37,0.063l1.165-1.476c-0.203-0.897-0.182-2.148,0.063-3.754l0.437-0.115
		c0.244-0.212,0.352-0.572,0.342-1.083c-0.085-0.113-0.301-0.177-0.653-0.188l-0.152-0.215l0.734-0.522l-0.094-0.133l-0.326-0.088
		l0.583-0.736c-0.104-0.146-0.343-0.086-0.713,0.181l-0.157-0.22l0.41-0.155c0.514-0.799,0.725-2.056,0.64-3.771
		c0.113-2.59,0.221-3.992,0.334-4.199c-0.063-0.088-0.149-0.09-0.266-0.005l0.469-1.635l-0.396-0.563l0.216-0.154
		c0.212-0.369,0.234-1.096,0.068-2.192c0.379-1.786,0.456-2.837,0.229-3.153c0.388-3.609,0.527-5.486,0.428-5.631
		c-0.104-0.144-0.328-0.094-0.677,0.149l-0.147-0.213c0.112-0.083,0.307-0.174,0.577-0.283c0.519-0.369,0.673-1.471,0.45-3.307
		c0.339-1.844,0.448-2.854,0.326-3.027c0.212-0.974,0.351-2.458,0.414-4.451c-0.37-0.52,0.186-1.302,1.652-2.34l0.563-0.4
		l-0.249-0.347l-0.56,0.401l-0.815,0.771c-0.122-0.175,0.157-0.542,0.834-1.113l0.907-0.644c0.753-0.1,1.173-0.18,1.258-0.24
		l3.289-2.335l0.997-0.508l0.063-0.376c0.113-0.08,0.311-0.171,0.581-0.278l0.331-0.363c0.039,0.059,0.117,0.048,0.234-0.036
		l0.73-0.521l-0.213-0.303l0.907-0.646l1.209-1.052l0.324,0.096l-1.083,0.769l0.153,0.214l3.113-2.205l0.285-0.334
		c0.04,0.059,0.135,0.035,0.28-0.066l0.518-0.366c0.316-0.529,0.677-0.938,1.079-1.223l0.175-0.124l-0.021,0.34
		c0.104,0.145,0.288,0.124,0.545-0.059c0.263-0.363,0.356-0.6,0.275-0.715c0.451-0.15,0.727-0.168,0.808-0.053
		c0.086-0.063,0.844-0.667,2.283-1.817l1.001-0.514c0.04-0.249,0.032-0.415-0.031-0.499l0.347-0.246l0.154,0.217
		c1.268-0.9,2.277-1.552,3.031-1.952c0.745-0.665,1.507-1.269,2.287-1.819l1.002-0.516c-0.063-0.088-0.022-0.179,0.121-0.283
		c0.063,0.086,0.153,0.09,0.267,0.01l1.083-0.768l1.181-0.713c0.249-0.262,0.804-0.762,1.666-1.502
		c0.897-0.507,1.604-0.942,2.124-1.31c0.374-0.267,0.776-0.618,1.204-1.054c0.186-0.04,1.214-0.664,3.096-1.869l0.284-0.328
		c0.703-0.414,2.283-1.426,4.731-3.036l0.646-0.651l3.686-2.224l-0.009-0.384l0.479-0.146l1.817-1.286l0.253-0.374
		c0.613-0.178,0.942-0.235,0.979-0.18c0.41-0.461,0.573-0.75,0.491-0.865l1.042-0.543l0.52-0.371l-0.149-0.213l0.388-0.275
		l-0.021,0.335l0.347-0.244l-0.243-0.347c0.856-0.131,1.344-0.238,1.457-0.32l0.257-0.375c0.316-0.225,0.834-0.529,1.561-0.914
		c0.573-0.535,0.901-0.836,0.989-0.895l1.216-0.667l0.253-0.378c0.063,0.089,0.167,0.08,0.313-0.021l0.906-0.644
		c0.23-0.161,0.284-0.334,0.163-0.505c0.775-0.553,1.348-0.785,1.714-0.699l0.388-0.275l0.848-0.728
		c0.059,0.083,0.379,0.015,0.948-0.22c2.787-2.063,4.096-3.208,3.934-3.438c0.487-0.348,0.897-0.533,1.231-0.55l-0.153-0.217
		l0.563-0.396l0.253-0.378l2.26-0.754c0.158-0.202,0.384-0.406,0.672-0.611c0.231-0.161,0.398-0.171,0.496-0.027
		c0.723-0.64,1.26-1.193,1.616-1.666c0.267-0.053,0.541-0.188,0.83-0.389l0.343-0.244l0.815-0.777
		c0.105,0.146,0.47-0.008,1.106-0.457l2.103-1.621l1.357-0.832c-0.041-0.058-0.004-0.127,0.113-0.211
		c0.14,0.203,0.343,0.211,0.6,0.029l0.734-0.521l0.412-0.618l-0.37-0.063l0.563-0.398c0.162,0.23,0.374,0.253,0.631,0.068
		l0.177-0.122l0.253-0.374c0.104,0.146,0.671-0.086,1.714-0.695l0.063-0.371L791.138,465.119z"/>
	
		<rect x="699.028" y="529.39" transform="matrix(-0.5848 -0.8112 0.8112 -0.5848 678.1498 1406.7889)" display="inline" fill="#8E1913" stroke="#8E1913" stroke-width="0.25" stroke-miterlimit="10" width="0.155" height="0.9"/>
	
		<rect x="711.47" y="520.418" transform="matrix(-0.5812 -0.8137 0.8137 -0.5812 701.2417 1402.6099)" display="inline" fill="#8E1913" stroke="#8E1913" stroke-width="0.25" stroke-miterlimit="10" width="0.109" height="0.902"/>
	<path display="inline" fill="#8E1913" stroke="#8E1913" stroke-width="0.25" stroke-miterlimit="10" d="M721.763,513.541
		l0.063,0.088l0.736-0.519l-0.37-0.069C722.021,513.296,721.88,513.461,721.763,513.541z"/>
	<polygon display="inline" fill="#8E1913" stroke="#8E1913" stroke-width="0.25" stroke-miterlimit="10" points="730.194,507.561 
		730.258,507.652 730.994,507.127 730.931,507.041 	"/>
	
		<rect x="745.447" y="496.231" transform="matrix(-0.5806 -0.8142 0.8142 -0.5806 773.8327 1392.431)" display="inline" fill="#8E1913" stroke="#8E1913" stroke-width="0.25" stroke-miterlimit="10" width="0.155" height="1.381"/>
	<path display="inline" fill="#8E1913" stroke="#8E1913" stroke-width="0.25" stroke-miterlimit="10" d="M768.351,481.281
		l0.096,0.129l0.906-0.642l-0.153-0.217C769.042,480.751,768.757,480.994,768.351,481.281z"/>
	<polygon display="inline" fill="#8E1913" stroke="#8E1913" stroke-width="0.25" stroke-miterlimit="10" points="774.807,477.096 
		775.15,476.851 776.12,476.289 776.273,476.508 774.96,477.312 	"/>
	<path display="inline" fill="#8E1913" stroke="#8E1913" stroke-width="0.25" stroke-miterlimit="10" d="M787.412,468.48
		c0.13,0.126,0.311,0.103,0.54-0.061l0.023-0.34L787.412,468.48z"/>
	<path display="inline" fill="#8E1913" stroke="#8E1913" stroke-width="0.25" stroke-miterlimit="10" d="M725.526,513.539
		l0.347-0.249c0.808-0.57,1.948-0.425,3.424,0.434c0.903,1.269,1.124,3.536,0.668,6.804l-0.171,0.124l0.419,0.223
		c-0.176,0.121-0.226,0.42-0.153,0.887c0.172-0.123,0.469-0.073,0.889,0.15c0.144,0.204-0.035,1.544-0.533,4.017l-0.171,0.123
		l-0.468,0.07l0.364,0.519l-0.987,0.442c-0.52,1.406-0.709,2.237-0.573,2.487l0.243,0.346l0.177-0.123
		c0.51-1.23,0.685-1.959,0.523-2.192l0.221-0.418l0.176-0.123l0.243,0.348c0.081,0.115-0.266,1.576-1.052,4.383l-0.342,0.246
		l-0.247-0.349l-0.52,0.37l0.125,0.172c0.163,0.231,0.416,0.227,0.763-0.022l0.123,0.174c0.166,0.232,0.13,0.429-0.1,0.594
		l-0.177,0.122l-1.055-0.028c0.104,0.145-0.193,1.562-0.88,4.26l0.121,0.173l0.177-0.123c0.112-0.083,0.297-0.556,0.546-1.427
		l0.171-0.123c0.104,0.146-0.081,1.229-0.55,3.25l-0.177,0.123c-0.081-0.113-0.261-0.246-0.541-0.394
		c-0.149,0.28-0.279,0.46-0.393,0.541l0.243,0.343l0.349-0.244l0.121,0.172c0.144,0.203-0.018,0.836-0.474,1.899l-0.52,0.364
		l-0.247-0.345c-0.121,0.26-0.313,0.48-0.569,0.664l0.37,0.519l0.271-0.713l0.175-0.125l0.366,0.52
		c-0.257,0.186-0.93,2.049-2.017,5.59c-0.288,0.203-0.97,1.559-2.058,4.061l-2.228,2.358c-3.167,1.643-5.469,1.453-6.897-0.566
		l-0.37-0.518c-1.101-1.56-1.513-4.818-1.223-9.792c-0.163-0.229-0.046-0.916,0.351-2.066c-0.283-0.406-0.104-1.488,0.556-3.252
		c-0.186-0.26,0.631-3.262,2.444-9.014c1.697-3.109,3.34-5.92,4.937-8.438c1.624-1.672,2.598-2.623,2.914-2.85l0.866-0.613
		c0.113-0.08,0.608,0.006,1.479,0.253l0.366,0.518c0.167,0.23-1.194,1.979-4.083,5.236c-3.035,5.188-4.958,9.932-5.765,14.227
		c-0.825,3.054-1.164,6.243-1.021,9.562c0.077,2.067,0.466,3.959,1.164,5.673c0.556,0.477,0.93,0.641,1.133,0.497
		c2.044-1.453,4.196-5.14,6.447-11.071l3.267-11.151l0.667-1.257l-0.416-0.224l1.25-5.565l0.47-8.132l-0.687-1.335
		c-1.091,0.17-1.953,0.177-2.584,0.017L725.526,513.539z M727.397,529.369l0.245,0.346l0.347-0.246
		c0.171-0.123,0.221-0.417,0.148-0.887l-0.342,0.246C727.643,529.106,727.511,529.288,727.397,529.369z M729.271,522.841
		l0.414,0.225l0.37,0.52c-0.148,0.104-0.401,0.719-0.771,1.846l0.243,0.348l0.347-0.246c0.23-0.166,0.357-1.207,0.38-3.129
		l0.176-0.125c-0.162-0.229-0.361-0.262-0.592-0.101C729.717,522.438,729.527,522.658,729.271,522.841z M730.104,515.23
		c0.253-0.135,0.452-0.101,0.596,0.098c0.163,0.231,0.127,0.43-0.104,0.592L730.104,515.23z M730.863,517.03l0.175-0.122
		l0.122,0.172c0.023,1.197-0.036,1.845-0.18,1.948l-0.171,0.123l-0.123-0.174C730.691,517.764,730.75,517.111,730.863,517.03z"/>
	<path display="inline" fill="#8E1913" stroke="#8E1913" stroke-width="0.25" stroke-miterlimit="10" d="M733.041,575.079
		l0.52-0.367l0.121,0.171c-0.026,0.452,0.022,0.767,0.146,0.938c-0.172,0.122-0.47,0.073-0.886-0.15
		C732.807,575.42,732.844,575.222,733.041,575.079z M748.794,501.264l0.123,0.171l0.226-0.42l1.822,0.01
		c0.649,1.097,0.325,2.106-0.975,3.027c-2.851,3.366-5.058,6.577-6.618,9.634c-0.229,0.165-0.992,1.656-2.282,4.478
		c-4.105,8.196-5.418,14.502-3.938,18.91l0.121,0.171c0.146,0.202,0.669,0.089,1.58-0.337c1.903-1.35,4.768-5.461,8.602-12.339
		c3.912-7.371,7.851-16.056,11.807-26.051c0.604-0.431,1.412-0.394,2.414,0.107c0.253-0.135,0.446-0.1,0.591,0.102
		c0.45,0.633,0.149,2.406-0.901,5.321l-2.333,9.449c-1.179,4.994-2.134,8.534-2.87,10.613l-0.46,2.926
		c-0.311,0.05-0.527,0.112-0.64,0.195l-0.123-0.173l-0.021-0.764l-0.695,0.489c-0.09,1.275-0.207,1.967-0.352,2.07l0.127,0.172
		l0.171-0.123c0.364-0.951,0.663-1.509,0.894-1.672l0.419,0.224c-0.56,2.82-1.195,4.485-1.917,4.997l-0.243-0.346l-0.349,0.243
		c-0.288,1.246-0.617,2-0.991,2.265l0.419,0.225c0.162,0.229,0.127,0.427-0.104,0.588l-0.468,0.074
		c-0.091,0.846-0.117,1.299-0.077,1.356l0.171-0.121c0.275-0.716,0.556-1.174,0.844-1.379l0.249,0.346l-1.62,5.047l-0.47,0.073
		l-0.071-0.47l-0.122-0.172c-0.167-0.231-0.366-0.264-0.595-0.101c-0.128,1.044-0.75,2.699-1.873,4.967
		c0.163,0.409-0.203,1.357-1.092,2.856c0.082,0.114,0.145,0.328,0.193,0.64l-0.469,0.074l-0.172,0.123
		c-0.09,1.275-0.338,2.144-0.748,2.608c-0.312,0.047-0.523,0.11-0.642,0.195c0.389,0.547-0.125,1.775-1.542,3.691
		c-0.082-0.117-0.163-0.143-0.253-0.079c0.798,1.122,0.104,2.829-2.089,5.119c-0.392,1.276-1.024,2.585-1.885,3.938
		c0.076,0.897-0.551,2.211-1.887,3.938c0.244,0.344,0.253,0.601,0.022,0.763l-0.176,0.124l-0.464,0.07
		c0.121,0.176-0.234,0.859-1.074,2.063c-0.229,0.161-0.429,0.128-0.59-0.103c1.312-3.097,2.521-5.515,3.627-7.251
		c1.889-4.548,3.351-7.832,4.379-9.862c0.235-0.949,0.641-1.844,1.219-2.684c0.316-1.569,1.407-4.424,3.28-8.567
		c0.217-1.71,0.599-2.761,1.146-3.149c0.279-0.028,0.482-0.085,0.6-0.167l-0.672-0.301l3.771-12.555
		c1.493-6.132,2.174-9.299,2.034-9.499c-0.466,0.326-1.881,3.063-4.25,8.212c-3.901,7.445-7.168,12.099-9.789,13.958
		c-1.25,0.497-2.739,0.599-4.461,0.307c-0.186-0.262-0.605-0.482-1.254-0.669l-0.862-1.213c-0.939-1.325-1.028-4.381-0.262-9.168
		c1.791-6.083,3.072-9.503,3.835-10.262c3.175-7.06,6.541-12.306,10.092-15.73C747.726,502.321,748.046,501.921,748.794,501.264z
		 M735.175,571.488c0.077,0.114,0.181,0.131,0.294,0.05c0.285,0.403,0.032,1.018-0.771,1.847c0.185,0.258,0.018,0.632-0.496,1.132
		l-0.243-0.347C733.65,573.736,734.056,572.843,735.175,571.488z M749.873,543.647l0.344-0.244c-0.209,1.534-0.52,2.445-0.921,2.732
		l-0.42-0.224C748.993,545.829,749.323,545.077,749.873,543.647z M750.767,541.977l0.121,0.172c0.122,0.173,0.072,0.47-0.153,0.886
		l-0.342,0.247l-0.249-0.347C750.433,542.73,750.64,542.41,750.767,541.977z M750.807,538.827c0.163,0.227,0.073,0.467-0.275,0.713
		l0.122,0.174l0.866-0.614l-0.122-0.173C751.236,538.693,751.037,538.661,750.807,538.827z M751.254,537.99l0.122,0.171
		c0.221,0.189,0.419,0.226,0.591,0.102l-0.073-0.469l-0.243-0.345C751.528,537.706,751.397,537.886,751.254,537.99z M752.946,533.41
		l0.518-0.37l0.121,0.177c0.163,0.229,0.132,0.426-0.098,0.592l-0.177,0.121L752.946,533.41z M754.497,526.071l0.52-0.37
		c0.229-0.163,0.266-0.36,0.099-0.592l-0.519,0.37C754.385,525.672,754.354,525.868,754.497,526.071z M756.374,519.281
		c0.189,0.207,0.388,0.243,0.591,0.1l0.176-0.121l-0.247-0.346L756.374,519.281z"/>
	<path display="inline" fill="#8E1913" stroke="#8E1913" stroke-width="0.25" stroke-miterlimit="10" d="M778.027,477.607
		l0.366,0.518c-0.172,0.121-0.239,0.518-0.199,1.183c-0.315,0.048-0.527,0.112-0.646,0.193c0.289,0.405,0.032,1.021-0.767,1.845
		c0.243,0.347,0.253,0.603,0.022,0.767l-0.175,0.122l-0.243-0.348l-0.349,0.246l0.713,0.273c-0.78,1.035-1.493,2.84-2.138,5.416
		c-0.979,0.695-1.566,2.066-1.76,4.113l0.609,0.863c-0.172,0.121-0.321,0.402-0.446,0.836l-0.172,0.122l-0.122-0.174l-0.022-0.765
		l-0.347,0.246c-0.173,0.125-0.223,0.42-0.149,0.887l0.243,0.348l0.349-0.246c0.058,0.998,0.012,1.549-0.132,1.65l-0.983,0.44
		l0.414,0.226l0.371,0.519l-0.618,0.956l-0.988,0.441c0.141,0.205-0.026,1.188-0.506,2.956l0.47-0.071l0.274-0.713
		c0.249-0.136,0.448-0.1,0.592,0.1c-0.356,1.641-0.722,2.59-1.096,2.854l-0.244-0.346l-0.176,0.124
		c-0.207,0.192-0.238,0.389-0.1,0.592c0.172-0.125,0.47-0.073,0.889,0.147c-0.523,4.273-0.646,8.257-0.36,11.955
		c0.441,1.42,0.505,2.24,0.188,2.464l-0.347,0.249c-1.688,0.066-2.629-0.045-2.834-0.332c-0.351-1.05-0.567-3.671-0.639-7.866
		l-0.633-9.688c-0.554-6.277-0.707-9.548-0.46-9.812l0.348-0.246c0.844,0.399,1.575,0.571,2.192,0.524
		c0.451,0.635,0.712,2.354,0.794,5.154l0.121,0.172C771.481,488.355,774.378,482.055,778.027,477.607z M771.396,498.684l0.347-0.249
		l0.123,0.175c0.185,0.259,0.018,0.638-0.497,1.132l-0.122-0.174C771.126,499.396,771.176,499.098,771.396,498.684z
		 M771.707,495.082l0.244,0.349l0.519-0.37c-0.162-0.23-0.36-0.261-0.592-0.1L771.707,495.082z"/>
	<path display="inline" fill="#8E1913" stroke="#8E1913" stroke-width="0.25" stroke-miterlimit="10" d="M803.468,459.691
		l0.215-0.152l2.514,0.428l0.153,0.217c-0.073,1.178-0.429,2.905-1.068,5.179c0.035,0.362,0.171,0.7,0.396,1.018l-0.435,0.307
		l-0.585,0.089c0.104,0.146,0.081,0.271-0.063,0.371l0.523,0.277l0.153,0.217c-0.229,0.165-0.429,0.496-0.586,1.002l-0.547,0.063
		c0.307,0.431,0.027,0.951-0.834,1.564l0.153,0.217c0.261,0.247,0.505,0.289,0.736,0.126c0.188-0.347,0.351-0.572,0.495-0.677
		l0.153,0.218c0.144,0.202,0.082,0.568-0.188,1.109c-0.203-0.289-0.452-0.332-0.736-0.129l-0.433,0.311
		c0.203,0.287,0.009,1.055-0.583,2.295c0.104,0.144-0.144,1.597-0.744,4.359c0.146-0.1,0.271-0.078,0.37,0.064
		c-0.487,0.777-0.482,1.512,0.004,2.205l0.985,0.928c-0.547-0.043-0.939,0.018-1.169,0.18c-0.529,0.418-0.704,1.824-0.529,4.211
		l-0.577,2.295c0.307-0.177,0.556-0.135,0.736,0.121c-0.23,1.205-0.117,2.71,0.339,4.508c-0.118,0.08-0.149,0.649-0.1,1.696
		l1.194,1.685c0.759,0.152,1.224,0.346,1.386,0.578c0.175,0.742,0.167,1.184-0.036,1.323l-0.211,0.153
		c-1.313,0.234-2.252-0.051-2.825-0.857l-0.46-0.649c-1.061-1.497-1.438-4.417-1.132-8.749c-0.1-1.055-0.109-3.174-0.023-6.353
		l-0.275-0.39l-0.432,0.307l-0.371,0.848l-0.221,0.155l-0.88,0.038c0.08,0.118,0.05,0.227-0.095,0.328l0.523,0.281l0.153,0.215
		c-0.112,0.084-0.496,0.461-1.141,1.135c-0.366,0.04-0.619,0.113-0.763,0.215c-1.047,5.424-1.81,8.41-2.283,8.961l0.153,0.216
		l-0.541,0.062l-0.222,0.155l0.158,0.217l0.388-0.277c-2.106,6.562-3.934,10.396-5.49,11.499l-0.648,0.463
		c-2.889,1.304-4.954,1.08-6.199-0.677c-2.251-3.171-1.488-10.925,2.287-23.261c2.233-5.828,4.056-9.246,5.468-10.248l0.433-0.309
		c1.413-0.998,3.866-1.938,7.363-2.814c-5.36,5.274-9.069,10.588-11.116,15.942c-0.482,2.247-1.07,4.264-1.755,6.05
		c-1.007,7.256-0.997,11.604,0.026,13.045c0.326,0.158,0.541,0.309,0.641,0.454c1.557-1.106,3.637-4.594,6.234-10.462l5.283-14.538
		l2.92-8.437C801.464,463.865,802.718,460.225,803.468,459.691z M798.058,481.662l0.153,0.215l0.821-0.582
		c0.289-0.206,0.329-0.453,0.126-0.743l-0.307-0.431l-0.217,0.156C798.481,481.035,798.288,481.499,798.058,481.662z
		 M798.085,478.129l0.894,1.254l1.623-0.825l-0.09-0.586l-0.581-0.82C798.815,477.723,798.202,478.049,798.085,478.129z
		 M799.745,480.467l0.153,0.217l0.605-0.433c-0.123-0.171-0.203-0.439-0.245-0.804l-0.388,0.275
		C799.601,479.957,799.561,480.205,799.745,480.467z"/>
	<path display="inline" fill="#8E1913" stroke="#8E1913" stroke-width="0.25" stroke-miterlimit="10" d="M828.359,395.642
		c0.979-0.695,2.391-0.659,4.236,0.112c0.081,0.118,0.063,0.217-0.05,0.296l0.786,0.742c0.82,1.154,1.208,2.436,1.172,3.848
		c0.366,0.519,0.335,2.797-0.099,6.828c0.085,0.115-0.126,1.044-0.622,2.783l-0.768,0.023c-0.193,1.008-0.45,1.622-0.771,1.847
		l-0.713-0.275l-0.487-0.69c1.285-7.714,1.365-12.365,0.242-13.954l-0.468,0.075c-2.803,2.161-5.599,7.868-8.392,17.127
		c-2.504,12.045-3.798,20.847-3.884,26.408c-0.221,1.891-0.289,2.891-0.207,3.007l0.243,0.345l2.769-1.962
		c0.113-0.081,0.213-0.063,0.295,0.05c0.179-0.297,0.617-0.78,1.312-1.449c0.113-0.08,0.217-0.063,0.299,0.05l0.74-0.784
		l0.347-0.249c0.171-0.121,0.47-0.069,0.884,0.155c-0.32,0.4-0.46,0.935-0.424,1.601c-1.155,2.031-2.196,3.376-3.117,4.031
		l-0.47,0.069l-0.222,0.42c-1.266,0.727-2.228,1.318-2.891,1.789c-0.597,1.424-0.794,3.466-0.587,6.137
		c0.082,0.115-0.004,0.609-0.252,1.477l-0.347,0.246l-0.245-0.347l-0.171,0.122c0.081,0.117,0.145,0.332,0.193,0.642l-0.469,0.075
		l-0.348,0.244c0.249,0.345,0.258,0.857,0.046,1.528c0.113-0.08,0.217-0.064,0.298,0.05c0.207-0.496,0.414-0.816,0.617-0.961
		l0.366,0.52c-0.091,2.016-0.23,3.155-0.43,3.426c0.046,3.912-0.167,7.525-0.627,10.844l-0.347,0.246l-0.121-0.174l0.125-1.652
		l-0.121-0.172l-0.343,0.244c-0.288,0.205-0.374,1.303-0.262,3.303c-0.04,1.589-0.253,2.518-0.623,2.783l0.123,0.172
		c0.229-0.162,0.388-0.186,0.468-0.072l0.221-0.418l0.349-0.246l0.243,0.348c0.121,0.172,0.071,0.47-0.149,0.885l-0.171,0.123
		c-0.166-0.229-0.479-0.179-0.938,0.146c0.026,0.285,0.132,0.556,0.316,0.813l0.226-0.417l0.171-0.124l0.243,0.348
		c0.167,0.229,0.131,0.428-0.099,0.592c-0.162-0.231-0.361-0.266-0.591-0.103c-0.121,0.259-0.312,0.48-0.569,0.665l0.42,0.222
		l0.122,0.177c-0.149,0.101-0.343,0.677-0.6,1.723l0.419,0.222l0.122,0.173c-0.519,0.367-0.718,0.945-0.596,1.724l0.469-0.073
		l0.546-1.427c0.253-0.136,0.447-0.1,0.591,0.099c-0.085,0.063-0.185,0.654-0.302,1.775l-0.343,0.246l-0.249-0.348l-0.518,0.367
		c-0.23,0.166-0.221,0.42,0.022,0.765c0.28,0.152,0.46,0.282,0.541,0.397c-0.117,0.08-0.131,0.18-0.05,0.296l-0.468,0.071
		l-0.52,0.368c0.121,2.124,0.271,3.315,0.456,3.577c-0.263,0.182-0.339,0.93-0.231,2.242c0.195,0.208,0.393,0.24,0.592,0.1
		l0.175-0.121c-0.307-0.434-0.364-1.003-0.171-1.701l0.177-0.125l0.243,0.346c0.021,1.371-0.054,2.12-0.229,2.242
		c-0.434-0.127-0.713-0.273-0.836-0.447l-0.347,0.246c0.492,0.693,0.456,1.496-0.104,2.416c0.082,0.113,0.144,0.327,0.193,0.641
		c0.172-0.121,0.47-0.072,0.885,0.15l-1.209,0.859c0.406,1.182,0.442,3.063,0.104,5.645l-0.171,0.121l0.713,0.275
		c-0.09,0.237-0.396,0.541-0.916,0.907l0.42,0.226l-0.027,1.061l0.242,0.346c0.119-0.085,0.33-0.146,0.642-0.197
		c-0.122-0.171-0.072-0.467,0.153-0.887l0.122,0.175c0.108,2.351,0.045,3.606-0.185,3.771l-0.171,0.121l-0.37-0.518l-0.172,0.121
		l-0.434,3.424l0.47-0.071l0.171-0.122l0.226-0.417l0.121,0.173l-1.041,2.559c-0.176,0.123-0.47,0.072-0.89-0.148
		c-0.153-0.587-0.144-0.939,0.027-1.061l0.47-0.072c-0.081-0.117-0.063-0.217,0.05-0.299l-0.415-0.223l-0.249-0.346
		c-0.233-3.69-0.176-5.809,0.171-6.359l-0.418-0.222c-0.023-0.894-0.004-2.206,0.062-3.943c-0.374-1.077-0.261-2.632,0.34-4.657
		c0.116-0.693,0.036-1.414-0.24-2.171c0.497-1.74,0.56-3.606,0.19-5.594c0.369-0.823,0.473-2.022,0.307-3.598
		c0.632-0.448,0.672-1.254,0.108-2.415c0.171-0.122,0.234-0.77,0.181-1.947c0.378-3,0.581-6.262,0.6-9.781
		c0.294-0.252,0.496-3.516,0.601-9.785l0.311-5.422c0.289-0.201,0.353-1.458,0.186-3.77c0.203-0.142,0.288-1.244,0.257-3.305
		l-0.785-0.738l-0.122-0.174c-0.162-0.23,0.29-0.811,1.362-1.746c-0.185-0.258,0.01-1.696,0.582-4.311
		c-0.094-3.92,0.848-11.869,2.838-23.851c0.289-0.203,0.496-1.133,0.627-2.783c0.402-0.285,1.01-2.36,1.818-6.229l2.585-6.252
		C825.478,398.725,826.944,396.643,828.359,395.642z M813.442,506.556c0.121,0.174,0.418,0.226,0.888,0.151
		c-0.104-0.146-0.117-0.656-0.046-1.527l-0.175,0.122C813.839,506.016,813.613,506.434,813.442,506.556z M814.223,509.122
		l0.171-0.122l0.126,0.172c0.163,0.229,0.127,0.428-0.104,0.591l-0.172,0.124l-0.121-0.174
		C813.987,509.461,814.02,509.264,814.223,509.122z M814.604,497.935l0.172-0.124c0.163,0.229,0.131,0.426-0.1,0.594l-0.171,0.121
		C814.37,498.271,814.402,498.074,814.604,497.935z M814.867,486.57l0.343-0.244l0.121,0.174c0.153,0.58,0.146,0.937-0.027,1.059
		l-0.171,0.124c-0.229,0.161-0.429,0.128-0.592-0.101L814.867,486.57z M814.897,469.393l0.245,0.347
		c0.175-0.123,0.487-0.173,0.938-0.146l0.171-0.121l-0.613-0.866c0.32-0.226,0.429-1.169,0.335-2.833l0.342-0.248l-0.487-0.691
		l-0.176,0.122c-0.505,1.489-0.627,2.784-0.355,3.896C815.146,469.133,815.011,469.31,814.897,469.393z M815.873,472.6l0.243,0.346
		c0.085,1.156,0.023,1.806-0.176,1.947l-0.176,0.123l-0.121-0.175C815.477,474.182,815.557,473.434,815.873,472.6z M816.486,451.107
		c-0.247,0.873-0.329,1.366-0.247,1.479c0.247-0.136,0.445-0.1,0.589,0.099c0.435-0.608,0.479-1.16,0.128-1.651L816.486,451.107z
		 M816.333,453.818l0.244,0.349l0.171-0.123c0.176-0.123,0.239-0.519,0.203-1.181l-0.47,0.068
		C816.311,453.057,816.257,453.352,816.333,453.818z M816.518,450.05l0.122,0.173l0.172-0.123c0.148-0.277,0.279-0.459,0.396-0.54
		l-0.121-0.176l-0.177,0.124C816.763,449.79,816.631,449.969,816.518,450.05z M816.916,441.449l0.121,0.172l0.694-0.49l-0.248-0.345
		C817.366,441.043,817.177,441.264,816.916,441.449z M817.401,435.904l0.763-0.022l0.348-0.244
		c-0.501-0.337-0.834-0.446-1.011-0.325C817.294,435.508,817.263,435.704,817.401,435.904z"/>
	<path display="inline" fill="#8E1913" stroke="#8E1913" stroke-width="0.25" stroke-miterlimit="10" d="M821.165,425.177l2.363,0.4
		l0.176-0.121l0.943-1.967l0.348-0.246c0.343-0.245,0.681-0.138,1.006,0.323c1.104,1.555,0.901,3.347-0.609,5.373l-1.209,0.855
		c-1.651-0.127-2.702-0.508-3.152-1.145l-0.615-0.863C820.222,426.539,820.475,425.668,821.165,425.177z M825.672,440.695
		c1.633,0.102,2.558,0.313,2.783,0.627c0.623,3.502,0.654,10.756,0.1,21.763c-0.104,4.929-0.285,7.481-0.542,7.663
		c-0.663,0.476-0.861,2.519-0.591,6.137c0.464-0.327,0.776-0.374,0.938-0.145l-0.221,0.42c-0.283,0.027-0.554,0.133-0.816,0.314
		c0.131,0.43-0.09,0.847-0.667,1.254l-0.177,0.125l-0.243-0.346c-0.654-0.923-0.848-6.328-0.587-16.221
		c0.298-8.617,0.307-13.125,0.023-13.53c0.09-0.542-0.081-3.104-0.52-7.691L825.672,440.695z M827.35,470.182l0.243,0.346
		l0.172-0.124c0.188-0.222,0.217-0.671,0.081-1.354l-0.347,0.244C827.326,469.417,827.276,469.711,827.35,470.182z M827.462,465.942
		l0.173-0.124c0.147-0.276,0.278-0.461,0.396-0.542l-0.249-0.345C827.444,465.433,827.336,465.768,827.462,465.942z M827.909,471.34
		l0.419,0.227c0.198,1.072,0.145,1.975-0.158,2.708l-0.171,0.123l-0.121-0.174c-0.199-1.069-0.14-1.72,0.175-1.944
		C827.729,471.817,827.679,471.506,827.909,471.34z M827.774,474.816l0.347-0.246l0.121,0.171c0.136,0.687,0.113,1.137-0.076,1.358
		l-0.244-0.348C827.949,475.301,827.899,474.99,827.774,474.816z"/>
	<path display="inline" fill="#8E1913" stroke="#8E1913" stroke-width="0.25" stroke-miterlimit="10" d="M838.658,446.822
		l0.52-0.371l0.127,0.176c-0.177,1.467-0.172,2.328,0.013,2.586l-1.037,0.737c0.226,0.317,0.298,0.787,0.217,1.405l-0.47,0.071
		c-0.316,0.227-0.392,0.976-0.229,2.243c-0.394,0.975-0.528,1.764-0.401,2.365l0.248,0.346l0.668-1.254l0.419,0.221
		c0.108,1.313,0.026,2.063-0.23,2.244c0.146,0.201,0.335,1.45,0.577,3.747c0.1,0.627,0.435,1.344,1.007,2.147
		c0.735,1.037,2.196,0.781,4.39-0.771c2.62-1.861,5.818-5.17,9.595-9.925l1.313-1.45l0.364,0.518
		c0.167,0.233,0.132,0.427-0.098,0.59l-1.16,0.563c-0.271,0.844-0.315,1.394-0.131,1.65l0.122,0.174l-0.762,0.024l-0.172,0.122
		c0.347,0.49-1.064,2.532-4.237,6.122c0.245,0.348-0.094,0.848-1.015,1.5l-0.122-0.172l-0.694,0.491l0.122,0.171l0.348-0.244
		l0.243,0.346l-0.172,0.124l-0.987,0.438c0.167,0.234,0.132,0.428-0.1,0.591l-0.171,0.124c-0.117,0.083-0.217,0.063-0.298-0.05
		c-0.118,0.083-0.132,0.18-0.05,0.296c-2.68,1.897-5.522,1.922-8.526,0.066c-0.474-0.66-0.816-1.023-1.033-1.088
		c-0.983-1.382-1.061-5.398-0.23-12.053c0.537-2.111,1.047-3.344,1.539-3.689c0.194,0.211,0.388,0.242,0.591,0.099l0.347-0.244
		l-0.713-0.274L838.658,446.822z M837.771,454.73l0.52-0.367l0.247,0.345l-0.518,0.369L837.771,454.73z M839.313,451.04l0.121,0.171
		c0.104,0.145-0.021,0.582-0.374,1.305l-0.171,0.121l-0.663-0.569l0.171-0.122c0.113-0.08,0.217-0.063,0.293,0.051
		C838.903,451.504,839.11,451.181,839.313,451.04z M845.914,431.021l0.342-0.247c2.192-0.813,3.894-0.374,5.099,1.327
		c0.879,3.014,0.37,6.928-1.543,11.751c-1.029,2.461-2.003,4.021-2.924,4.674c-1.589,1.124-3.293,1.033-5.124-0.265
		c-0.136-0.249-0.104-0.448,0.1-0.592c0.852-0.083,1.551-0.317,2.096-0.709c2.365-1.674,4.003-5.959,4.923-12.848l-0.51-1.456
		l-0.126-0.173l-2.969,3.145l-0.243-0.348l-0.343,0.246c-0.461,1.064-0.619,1.695-0.479,1.897l-0.464,0.071l-0.52,0.367
		c-0.153,0.586-0.639,1.361-1.465,2.335c0.08,0.118,0,0.612-0.249,1.48c-0.284,0.03-0.56,0.136-0.816,0.317
		c0.082,0.116,0.144,0.332,0.193,0.644c0.118-0.081,0.217-0.065,0.299,0.05l-0.496,1.133l-1.038,0.734
		c0.202,0.289,0.294,0.659,0.267,1.111c-0.912,0.428-1.436,0.541-1.579,0.336c1.016-2.84,1.646-4.76,1.89-5.759
		c0.316-0.354,1.092-1.943,2.337-4.773c0.903-1.29,1.48-2.308,1.733-3.05L845.914,431.021z M839.715,448.673l0.347-0.246
		c0.1,0.146,0.019,0.637-0.252,1.48l-0.172,0.122l-0.125-0.174C839.391,449.681,839.458,449.289,839.715,448.673z M839.841,447.021
		c0.316-0.047,0.527-0.111,0.646-0.195c0.162,0.234,0.127,0.43-0.099,0.591l-0.348,0.247l-0.122-0.172L839.841,447.021z
		 M840.04,447.664l0.364,0.52l-0.343,0.243l-0.125-0.171C839.801,448.006,839.837,447.809,840.04,447.664z M840.563,445.473
		l0.347-0.247c0.163,0.233,0.131,0.428-0.1,0.593l-0.347,0.245C840.328,445.813,840.36,445.615,840.563,445.473z M841.66,442.617
		l0.414,0.222l-0.271,0.714l-0.42-0.223L841.66,442.617z"/>
</g>
</svg>
